<?xml version="1.0" encoding="UTF-8" standalone="no"?>
<svg
   xmlns:dc="http://purl.org/dc/elements/1.1/"
   xmlns:cc="http://creativecommons.org/ns#"
   xmlns:rdf="http://www.w3.org/1999/02/22-rdf-syntax-ns#"
   xmlns:svg="http://www.w3.org/2000/svg"
   xmlns="http://www.w3.org/2000/svg"
   xmlns:sodipodi="http://sodipodi.sourceforge.net/DTD/sodipodi-0.dtd"
   xmlns:inkscape="http://www.inkscape.org/namespaces/inkscape"
   id="Ebene_1"
   data-name="Ebene 1"
   viewBox="0 0 191.80366 32.621041"
   version="1.1"
   sodipodi:docname="bitexpert.svg"
   width="191.80367"
   height="32.62104"
   inkscape:version="1.0.1 (3bc2e813f5, 2020-09-07)">
  <metadata
     id="metadata111">
    <rdf:RDF>
      <cc:Work
         rdf:about="">
        <dc:format>image/svg+xml</dc:format>
        <dc:type
           rdf:resource="http://purl.org/dc/dcmitype/StillImage" />
        <dc:title>bE_2019</dc:title>
      </cc:Work>
    </rdf:RDF>
  </metadata>
  <sodipodi:namedview
     pagecolor="#ffffff"
     bordercolor="#666666"
     borderopacity="1"
     objecttolerance="10"
     gridtolerance="10"
     guidetolerance="10"
     inkscape:pageopacity="0"
     inkscape:pageshadow="2"
     inkscape:window-width="2880"
     inkscape:window-height="1556"
     id="namedview109"
     showgrid="false"
     fit-margin-top="0"
     fit-margin-left="0"
     fit-margin-right="0"
     fit-margin-bottom="0"
     inkscape:zoom="6.2200208"
     inkscape:cx="95.903671"
     inkscape:cy="22.566059"
     inkscape:window-x="0"
     inkscape:window-y="0"
     inkscape:window-maximized="1"
     inkscape:current-layer="Ebene_1" />
  <defs
     id="defs4">
    <style
       id="style2">.cls-1{isolation:isolate;}.cls-2{fill:#3b4144;}.cls-3{fill:#ff7300;}</style>
  </defs>
  <path
     class="cls-3"
     d="m 7.6036698,32.60606 h -6.4 a 1,1 0 0 1 -0.89999996,-0.4 1.22,1.22 0 0 1 -0.3,-0.9 v -20.4 a 1.22,1.22 0 0 1 0.4,-0.9 1.27,1.27 0 0 1 0.89999996,-0.4 h 6.4 v 3.7 h -4 v 15.6 h 3.9 z m 0.9,-6.3 H 18.80367 v -10.3 H 8.5036698 Z m 11.2000002,6.3 h 6.4 a 1,1 0 0 0 0.9,-0.4 1.22,1.22 0 0 0 0.3,-0.9 v -20.4 a 1.22,1.22 0 0 0 -0.4,-0.9 1.27,1.27 0 0 0 -0.9,-0.4 h -6.3 v 3.7 h 3.9 v 15.6 h -3.9 z"
     id="path88" />
  <path
     class="cls-3"
     d="m 53.80367,26.20606 a 6.46,6.46 0 0 1 -0.4,2.6 5.64,5.64 0 0 1 -1.4,2 6.41,6.41 0 0 1 -4.7,1.8 h -8.4 a 1.82,1.82 0 0 1 -1.1,-0.5 1.61,1.61 0 0 1 -0.5,-1.1 V 0.00605997 h 3.8 V 9.80606 h 6.3 a 6.25,6.25 0 0 1 2.5,0.4 5.15,5.15 0 0 1 2.1,1.4 6.42,6.42 0 0 1 1.9,4.6 z m -3.8,-0.5 v -9.1 a 3,3 0 0 0 -0.9,-2.3 3.17,3.17 0 0 0 -2.3,-0.9 h -5.8 v 15.5 h 5.8 a 4.51,4.51 0 0 0 1.3,-0.1 2.61,2.61 0 0 0 1,-0.7 3.41,3.41 0 0 0 0.9,-2.4 z"
     id="path90" />
  <path
     class="cls-3"
     d="m 58.20367,0.00605997 h 3.8 V 3.70606 h -3.8 z m 3.7,32.60000003 h -3.8 v -22.9 h 3.8 z"
     id="path92" />
  <path
     class="cls-3"
     d="m 70.50367,32.60606 a 1.82,1.82 0 0 1 -1.1,-0.5 1.61,1.61 0 0 1 -0.5,-1.1 v -17.6 h -3.3 v -3.7 h 3.3 V 0.00605997 h 3.8 V 9.70606 h 6.3 v 3.7 h -6.3 v 15.5 h 3.6 v 3.7 z"
     id="path94" />
  <path
     class="cls-2"
     d="m 98.90367,32.60606 h -14.9 a 1.41,1.41 0 0 1 -1.6,-1.6 v -29.3 a 1.7,1.7 0 0 1 0.4,-1.30000003 1.59,1.59 0 0 1 1.2,-0.4 h 14.9 V 3.70606 h -12.8 v 9.4 h 11.2 v 3.7 h -11.2 v 12.1 h 12.8 z"
     id="path96" />
  <path
     class="cls-2"
     d="m 121.20367,9.70606 -7.8,11.4 7.6,11.4 h -4.7 l -5.5,-8.3 -5.5,8.3 h -4.5 l 7.6,-11.4 -7.7,-11.4 h 4.7 l 5.4,8.4 5.6,-8.4 z"
     id="path98" />
  <path
     class="cls-2"
     d="m 138.80367,17.90606 c -0.9,4 -3.4,5.9 -7.6,5.7 h -3.3 v 9 h -3.8 v -21.7 a 1,1 0 0 1 1.1,-1.1 h 5.9 a 7.47,7.47 0 0 1 5.9,2.4 6.27,6.27 0 0 1 1.8,5.7 z m -3.7,-1.3 a 2.7,2.7 0 0 0 -1,-2.2 4.14,4.14 0 0 0 -3,-1 h -3.2 v 6.5 h 3.2 a 4,4 0 0 0 3,-1 2.9,2.9 0 0 0 1,-2.3 z"
     id="path100" />
  <path
     class="cls-2"
     d="m 153.90367,32.60606 h -10.6 a 1,1 0 0 1 -1.1,-1.1 v -20.6 a 1.22,1.22 0 0 1 0.3,-0.9 1.14,1.14 0 0 1 0.8,-0.3 h 10.6 v 3.7 h -7.9 v 5.1 h 6.8 v 3.7 h -6.8 v 6.8 h 7.9 z"
     id="path102" />
  <path
     class="cls-2"
     d="m 173.50367,16.80606 a 6.84,6.84 0 0 1 -3.8,6.3 l 5.1,9.5 h -3.9 l -5,-9 h -3.3 v 9 h -3.8 v -21.7 a 1,1 0 0 1 1.1,-1.1 h 5.9 a 7.11,7.11 0 0 1 5.7,2.2 6.57,6.57 0 0 1 2,4.8 z m -3.7,-0.2 a 3,3 0 0 0 -1,-2.3 4.14,4.14 0 0 0 -3,-1 h -3.2 v 6.6 h 3.2 a 4,4 0 0 0 3,-1 3.26,3.26 0 0 0 1,-2.3 z"
     id="path104" />
  <path
     class="cls-2"
     d="m 191.80367,13.40606 h -5.8 v 19.2 h -3.8 v -19.2 h -5.8 v -3.7 h 15.3 z"
     id="path106" />
</svg>
