<?xml version="1.0" encoding="utf-8"?>
<!-- Generator: Adobe Illustrator 18.0.0, SVG Export Plug-In . SVG Version: 6.00 Build 0)  -->
<!DOCTYPE svg PUBLIC "-//W3C//DTD SVG 1.1//EN" "http://www.w3.org/Graphics/SVG/1.1/DTD/svg11.dtd">
<svg version="1.1" id="Calque_1" xmlns="http://www.w3.org/2000/svg" xmlns:xlink="http://www.w3.org/1999/xlink" x="0px" y="0px"
	 viewBox="0 0 244.1 157" enable-background="new 0 0 244.1 157" xml:space="preserve">
<g>
	<g>
		<circle fill="#E03C31" cx="122" cy="51" r="51"/>
		<g>
			<path fill="#FFFFFF" d="M113,85.5c0.6,0.8-0.1,1.8-1.1,1.7C95.2,85,83.3,60.3,98.9,46c17.2-15.8,21.2-25.2,19.1-30.2
				c-0.3-0.7,0.4-1.3,1-1c5.7,2.8,18.7,11.4,14.4,30c0,0,7.5-0.1,7.7-7.1c0-0.7,0.8-1,1.3-0.5c3.3,3,11.1,11.5,10.1,22.8
				c-1.5,16.2-12.8,24.7-21.2,26.8c-0.8,0.2-1.5-0.7-1-1.5c2.4-3.5,6.6-10.8-2.2-18c-6.7-4.9-7.5-10.2-6.5-13.4
				c0.2-0.5-0.5-1-0.9-0.6C103.5,67.8,109.6,80.7,113,85.5z"/>
		</g>
	</g>
	<g>
		<path fill="#323232" d="M26.1,142.4c0,10.1-4.9,14.9-13.2,14.9c-7.5,0-12.8-4.1-12.8-12.4v-25.5c0-1.9,1.5-3.3,3.3-3.3
			s3.3,1.5,3.3,3.3V130c1.2-1.2,3.8-2.5,6.8-2.5C21.3,127.5,26.1,132.4,26.1,142.4z M6.7,144.9c0,4.3,2.5,6.7,6.1,6.7
			c4.3,0,6.6-3.1,6.6-9.2c0-6.1-2.4-9.2-6.6-9.2c-3.7,0-6.1,3.2-6.1,3.2V144.9z"/>
		<path fill="#323232" d="M36.1,119.4v30.3c0,0.7,0.7,1.1,1.2,1.1c1.7,0,3.1,1.4,3.1,3.1s-1.4,3.1-3.1,3.1c-4.8,0-7.9-2.7-7.9-7.9
			v-29.7c0-1.9,1.5-3.3,3.3-3.3C34.7,116,36.1,117.5,36.1,119.4z"/>
		<path fill="#323232" d="M47.8,135.8c-0.6,0.4-1.1,0.6-1.9,0.6c-1.6,0-2.9-1.3-2.9-2.9c0-0.7,0.2-1.4,0.8-2c1.7-1.9,4.8-4,10.1-4
			c7.7,0,12.3,3.8,12.3,10.3v15.8c0,1.8-1.5,3.3-3.3,3.3c-1.8,0-3.3-1.5-3.3-3.3c-1.7,2.7-4.4,3.6-8.1,3.6c-6.1,0-10.1-3.8-10.1-9.3
			c0-5.8,4.6-8.7,10-8.7h8.1v-1.1c0-2.8-2-4.6-5.6-4.6C51.3,133.5,49.4,134.7,47.8,135.8z M59.7,146.2v-1.7h-7.2
			c-2.7,0-4.2,1.3-4.2,3.5c0,2.4,1.7,3.8,5.1,3.8C56.6,151.7,59.7,149.6,59.7,146.2z"/>
		<path fill="#323232" d="M83.1,127.5c5.7,0,9,2.8,10.1,4.3c0.5,0.7,0.7,1.2,0.7,1.9c0,1.7-1.3,3-3,3c-1,0-1.7-0.4-2.3-1.1
			c-0.8-0.9-2.4-2.4-5.5-2.4c-4.3,0-6.7,3.3-6.7,9.2c0,5.9,2.4,9.2,6.7,9.2c2.8,0,4.7-1.4,6.1-2.5c0.7-0.5,1.2-0.6,1.9-0.6
			c1.7,0,3,1.3,3,3c0,0.9-0.3,1.6-1.1,2.3c-1.4,1.3-4.8,3.5-9.9,3.5c-8.4,0-13.4-4.8-13.4-14.9C69.6,132.3,74.6,127.5,83.1,127.5z"
			/>
		<path fill="#323232" d="M115.2,155.7l-9.2-12.4l-2,1.5v8.9c0,1.9-1.5,3.2-3.3,3.2c-1.9,0-3.3-1.4-3.3-3.2v-34.5
			c0-1.9,1.4-3.2,3.3-3.2c1.9,0,3.3,1.4,3.3,3.2v18.2l11.2-8.8c0.8-0.6,1.4-0.8,2.2-0.8c1.8,0,3.2,1.4,3.2,3.2
			c0,0.9-0.4,1.9-1.2,2.5l-8.1,6.2l9.1,11.9c0.5,0.7,0.7,1.4,0.7,2c0,1.8-1.4,3.2-3.2,3.2C116.6,157,115.7,156.4,115.2,155.7z"/>
		<path fill="#323232" d="M125,134c-1.5,0-2.8-1.2-2.8-2.8c0-1.5,1.2-2.8,2.8-2.8h1.3V125c0-5.8,3.8-9.4,11.8-9.4
			c1.6,0,2.9,1.3,2.9,2.9s-1.3,2.9-2.9,2.9c-3.4,0-5.1,1.9-5.1,4.6v2.3h4.1c1.5,0,2.8,1.2,2.8,2.8c0,1.5-1.2,2.8-2.8,2.8h-4.1v19.8
			c0,1.9-1.5,3.2-3.3,3.2c-2,0-3.3-1.4-3.3-3.2V134H125z"/>
		<path fill="#323232" d="M143,123.2c0-2.8,1.4-4,3.9-4c2.5,0,3.9,1.2,3.9,4c0,2.4-1.4,3.8-3.9,3.8C144.4,127,143,125.6,143,123.2z
			 M150.2,153.6c0,1.9-1.5,3.3-3.3,3.3c-1.9,0-3.3-1.5-3.3-3.3v-21.4c0-1.9,1.5-3.3,3.3-3.3c1.9,0,3.3,1.5,3.3,3.3V153.6z"/>
		<path fill="#323232" d="M161.3,131.5c1.2-2.4,4.1-4,6.7-4c1.7,0,3.2,1.4,3.2,3.2c0,1.7-1.4,3.2-3.2,3.2c-4.3,0-6.7,2.7-6.7,6.9
			v12.9c0,1.9-1.5,3.3-3.3,3.3c-1.9,0-3.3-1.5-3.3-3.3v-22.4c0-1.9,1.5-3.3,3.3-3.3c1.9,0,3.3,1.5,3.3,3.3V131.5z"/>
		<path fill="#323232" d="M184.9,127.5c10.5,0,12.4,8,12.4,12.3c0,2.3,0,5-3.8,5h-15.3c0,4.5,3.2,6.5,7.2,6.5c2.7,0,4.6-0.9,6.1-1.9
			c0.7-0.4,1.2-0.7,2-0.7c1.6,0,2.9,1.3,2.9,2.9c0,1-0.5,1.8-1.1,2.3c-1.1,1-4.3,3.4-10,3.4c-8.6,0-13.9-4.6-13.9-15
			C171.6,132.8,176.5,127.5,184.9,127.5z M178.4,139.2h12.3c0-3-1.7-6-5.8-6C181.3,133.2,178.7,135.3,178.4,139.2z"/>
		<path fill="#323232" d="M200.7,154.6c0-2.1,1.1-3,2.9-3c1.8,0,2.9,0.9,2.9,3c0,2.1-1.1,2.9-2.9,2.9
			C201.9,157.5,200.7,156.6,200.7,154.6z"/>
		<path fill="#323232" d="M209.8,122.9c0-1.8,0.9-2.5,2.4-2.5c1.5,0,2.4,0.7,2.4,2.5c0,1.5-0.9,2.4-2.4,2.4
			C210.7,125.3,209.8,124.4,209.8,122.9z M214.2,155.5c0,1.1-0.9,2-2,2c-1.1,0-2-0.9-2-2v-25.3c0-1.1,0.9-2,2-2c1.1,0,2,0.9,2,2
			V155.5z"/>
		<path fill="#323232" d="M244.1,142.8c0,10.2-5,15-13.1,15c-8,0-13.1-4.8-13.1-15c0-10.2,5.1-15,13.1-15
			C239.1,127.8,244.1,132.5,244.1,142.8z M240,142.8c0-7.9-3.3-11.4-9-11.4s-9,3.5-9,11.4c0,8,3.3,11.4,9,11.4S240,150.8,240,142.8z
			"/>
	</g>
</g>
</svg>
