<svg width="1920" height="544" viewBox="0 0 1920 544" fill="none" xmlns="http://www.w3.org/2000/svg">
<path d="M253.127 230.33C228.739 230.33 206.275 243.189 196.158 261.338V164.222C195.966 159.974 194.158 155.92 191.081 152.985C188.004 150.05 183.926 148.39 179.695 148.39C175.464 148.39 171.348 150.05 168.309 152.985C165.232 155.92 163.424 159.974 163.231 164.222V380.388C163.424 384.636 165.232 388.69 168.309 391.625C171.386 394.56 175.464 396.22 179.695 396.22C183.926 396.22 188.042 394.56 191.081 391.625C194.158 388.69 195.966 384.636 196.158 380.388V365.907C205.467 384.172 228.778 396.915 253.127 396.915C294.286 396.915 331.021 363.552 331.021 313.623C331.021 263.694 294.401 230.33 253.127 230.33ZM247.742 367.529C221.777 367.529 196.158 346.87 196.158 313.507C195.966 306.556 197.197 299.644 199.697 293.157C202.198 286.67 205.967 280.761 210.776 275.742C215.584 270.722 221.315 266.744 227.701 264.003C234.048 261.261 240.895 259.794 247.818 259.716C276.63 259.716 299.132 280.684 299.132 313.739C299.132 346.793 276.668 367.761 247.818 367.761" fill="#4E4833"/>
<path d="M907.553 230.329C883.166 230.329 860.74 243.188 850.585 261.337V164.221C850.585 159.857 848.854 155.648 845.776 152.52C842.699 149.431 838.506 147.693 834.121 147.693C829.736 147.693 825.582 149.431 822.466 152.52C819.389 155.609 817.658 159.818 817.658 164.221V380.387C817.658 384.789 819.389 388.959 822.466 392.087C825.543 395.215 829.736 396.914 834.121 396.914C838.506 396.914 842.661 395.176 845.776 392.087C848.854 388.998 850.585 384.789 850.585 380.387V365.906C859.894 384.171 883.204 396.914 907.553 396.914C948.712 396.914 985.447 363.551 985.447 313.622C985.447 263.693 948.712 230.329 907.553 230.329ZM902.168 367.528C876.203 367.528 850.546 346.869 850.546 313.506C850.392 306.555 851.585 299.643 854.085 293.194C856.585 286.707 860.355 280.799 865.163 275.818C869.972 270.798 875.703 266.82 882.05 264.079C888.397 261.337 895.244 259.87 902.168 259.754C930.979 259.754 953.443 280.722 953.443 313.776C953.443 346.83 930.979 367.798 902.168 367.798" fill="#4E4833"/>
<path d="M487.308 234.771C482.961 234.771 478.768 236.508 475.691 239.636C472.614 242.725 470.883 246.934 470.844 251.298V307.405C470.844 347.14 452.496 366.216 424.262 366.216C401.452 366.216 386.565 348.723 386.565 323.006V251.298C386.565 246.934 384.834 242.725 381.757 239.597C378.68 236.508 374.487 234.771 370.102 234.771C365.717 234.771 361.562 236.508 358.446 239.597C355.369 242.687 353.638 246.896 353.638 251.298V329.84C353.638 369.575 378.68 396.914 416.646 396.914C439.764 396.914 462.497 383.978 470.768 365.907V380.387C470.96 384.635 472.768 388.689 475.845 391.624C478.922 394.559 483 396.219 487.231 396.219C491.462 396.219 495.578 394.559 498.655 391.624C501.733 388.689 503.541 384.635 503.733 380.387V251.298C503.733 246.896 502.002 242.725 498.886 239.597C495.771 236.508 491.616 234.771 487.231 234.771" fill="#4E4833"/>
<path d="M728.491 230.33C702.527 230.33 681.216 241.297 669.907 261.956C661.214 242.648 640.173 230.33 617.67 230.33C607.284 230.562 597.168 233.535 588.359 238.98C579.512 244.425 572.28 252.109 567.357 261.299V251.337C567.164 247.089 565.356 243.034 562.279 240.1C559.202 237.165 555.124 235.505 550.893 235.505C546.662 235.505 542.546 237.165 539.469 240.1C536.391 243.034 534.583 247.089 534.391 251.337V380.388C534.583 384.635 536.391 388.69 539.469 391.625C542.546 394.559 546.623 396.22 550.893 396.22C555.163 396.22 559.24 394.559 562.279 391.625C565.356 388.69 567.164 384.635 567.357 380.388V314.24C567.357 278.946 583.82 260.836 609.131 260.836C629.402 260.836 644.597 275.471 644.597 298.64L644.75 380.349C644.943 384.597 646.751 388.651 649.828 391.586C652.905 394.521 656.983 396.181 661.252 396.181C665.522 396.181 669.6 394.521 672.638 391.586C675.716 388.651 677.524 384.597 677.716 380.349L677.562 314.202C677.562 278.908 694.333 260.797 719.99 260.797C740.223 260.797 755.456 275.432 755.456 298.601L755.11 380.31C755.302 384.558 757.11 388.613 760.187 391.547C763.265 394.482 767.342 396.143 771.573 396.143C775.805 396.143 779.92 394.482 782.998 391.547C786.075 388.613 787.883 384.558 788.075 380.31V291.921C788.075 254.773 761.149 230.253 728.53 230.253L728.491 230.33Z" fill="#4E4833"/>
<path d="M1083.43 376.371C1082.58 372.664 1080.31 369.459 1077.16 367.373C1074 365.288 1070.15 364.516 1066.42 365.211C1064.58 365.52 1062.73 365.713 1060.88 365.713C1048.88 365.713 1040.65 358.106 1040.65 347.294V164.221C1040.65 159.857 1038.92 155.648 1035.84 152.52C1032.77 149.431 1028.57 147.693 1024.19 147.693C1019.8 147.693 1015.65 149.431 1012.53 152.52C1009.46 155.609 1007.72 159.818 1007.72 164.221V348.916C1007.69 361.543 1012.61 373.629 1021.42 382.626C1030.23 391.624 1042.23 396.759 1054.77 396.914C1061.19 397.03 1067.58 396.103 1073.73 394.211C1077.23 393.091 1080.19 390.697 1082 387.453C1083.81 384.248 1084.35 380.464 1083.54 376.873L1083.43 376.409V376.371Z" fill="#4E4833"/>
<path d="M1245.71 311.922C1243.17 288.406 1230.52 230.329 1167.86 230.329C1123.54 230.329 1086.5 263.731 1086.5 313.93C1086.5 364.13 1123.77 396.914 1166.59 396.914C1193.9 396.914 1216.9 386.758 1231.79 366.485C1232.94 364.902 1233.75 363.126 1234.21 361.272C1234.67 359.38 1234.75 357.411 1234.44 355.519C1234.13 353.588 1233.48 351.773 1232.48 350.112C1231.48 348.452 1230.17 347.023 1228.59 345.865C1227.02 344.706 1225.25 343.895 1223.4 343.432C1221.52 342.969 1219.55 342.892 1217.67 343.162C1215.75 343.471 1213.94 344.127 1212.28 345.131C1210.63 346.135 1209.17 347.448 1208.05 349.031C1197.01 364.632 1181.7 368.339 1166.59 368.339C1143.47 368.339 1122.27 350.885 1119.12 321.576H1237.13C1238.36 321.576 1239.56 321.306 1240.67 320.804C1241.79 320.302 1242.79 319.568 1243.6 318.68C1244.4 317.753 1245.02 316.711 1245.4 315.514C1245.79 314.316 1245.9 313.119 1245.75 311.884V311.961L1245.71 311.922ZM1120.04 297.982C1122.35 287.016 1128.35 277.208 1137.08 270.218C1145.82 263.229 1156.7 259.522 1167.86 259.754C1189.36 259.754 1207.44 272.458 1212.48 298.214L1120.04 297.982Z" fill="#4E4833"/>
<path d="M1347.69 194.573C1347.69 206.544 1338.65 215.271 1326.42 215.271C1314.19 215.271 1304.84 206.544 1304.84 194.573C1304.84 183.259 1313.88 173.528 1326.42 173.528C1338.96 173.528 1347.69 183.221 1347.69 194.573ZM1309.69 380.311V253.036C1309.69 243.885 1317.11 236.432 1326.23 236.432C1335.61 236.432 1343.19 244.078 1343.19 253.461V379.848C1343.19 389.27 1335.57 396.877 1326.23 396.877C1317.11 396.877 1309.69 389.463 1309.69 380.272V380.311Z" fill="#4E4833"/>
<path d="M1525.21 299.838V379.848C1525.21 389.231 1517.63 396.877 1508.25 396.877C1498.94 396.877 1491.36 389.308 1491.36 379.925V306.634C1491.36 280.414 1476.2 262.96 1453.32 262.96C1424.62 262.96 1405.62 282.384 1405.62 322.814V379.886C1405.62 389.27 1398.04 396.877 1388.69 396.877C1379.54 396.877 1372.12 389.424 1372.12 380.234V253.075C1372.12 243.885 1379.54 236.432 1388.69 236.432C1398.04 236.432 1405.62 244.039 1405.62 253.423V256.164C1418.51 240.641 1437.2 231.914 1461.05 231.914C1499.4 231.914 1525.17 259.717 1525.17 299.838H1525.21Z" fill="#4E4833"/>
<path d="M1687.88 336.946C1697.88 339.572 1703.04 351.079 1697.77 359.999C1684.23 383.014 1658.15 396.915 1628.99 396.915C1584.22 396.915 1546.37 363.668 1546.37 313.97C1546.37 264.273 1584.22 231.025 1628.99 231.025C1657.57 231.025 1683.46 245.12 1697.5 268.25C1702.73 276.9 1698.04 288.214 1688.34 291.033L1687 291.419C1679.96 293.466 1672.73 290.029 1669.19 283.542C1660.92 268.482 1645.88 261.377 1628.99 261.377C1599.99 261.377 1578.52 282.924 1578.52 313.932C1578.52 344.939 1599.95 366.486 1628.99 366.486C1646.11 366.486 1661.07 359.652 1670.07 344.553C1673.77 338.336 1680.88 335.093 1687.84 336.907L1687.88 336.946Z" fill="#4E4833"/>
<path d="M1758.24 376.177C1758.24 387.838 1749.54 396.874 1737.27 396.874C1725 396.874 1716 387.8 1716 376.177C1716 365.171 1725.04 355.788 1737.27 355.788C1749.5 355.788 1758.24 365.171 1758.24 376.177Z" fill="#4E4833"/>
</svg>
