<?xml version="1.0" encoding="UTF-8"?>
<svg width="789px" height="93px" viewBox="0 0 789 93" version="1.1" xmlns="http://www.w3.org/2000/svg" xmlns:xlink="http://www.w3.org/1999/xlink">
    <defs>
        <polygon id="path-1" points="0.06 0.246 57.573 0.246 57.573 90 0.06 90"></polygon>
    </defs>
    <g id="Page-1" stroke="none" stroke-width="1" fill="none" fill-rule="evenodd">
        <g id="ðŸ“Atom/Logo/Wortmarke/Red">
            <g id="FA_Logo-WM_L_RGB">
                <g id="Group-3" transform="translate(0.000000, 3.000000)">
                    <mask id="mask-2" fill="white">
                        <use xlink:href="#path-1"></use>
                    </mask>
                    <g id="Clip-2"></g>
                    <polyline id="Fill-1" fill="#E6001E" mask="url(#mask-2)" points="0 90 9.913 90 9.913 48.587 48.923 48.587 48.923 38.952 9.913 38.952 9.913 9.76 57.573 9.76 57.573 0.246 0 0.246 0 90"></polyline>
                </g>
                <polyline id="Fill-4" fill="#E6001E" points="83.065 3.246 73.151 3.246 73.151 93 123.505 93 123.505 83.49 83.065 83.49 83.065 3.246"></polyline>
                <polyline id="Fill-5" fill="#E6001E" points="152.934 45.399 126.678 3.771 126.349 3.246 114.907 3.246 147.855 54.981 147.855 93 157.769 93 157.769 54.981 190.72 3.246 179.398 3.246 152.934 45.399"></polyline>
                <polyline id="Fill-6" fill="#E6001E" points="208.159 93 266.853 93 266.853 83.49 218.072 83.49 218.072 51.587 259.489 51.587 259.489 41.952 218.072 41.952 218.072 12.76 266.853 12.76 266.853 3.246 208.159 3.246 208.159 93"></polyline>
                <path d="M332.37,28.404 C332.37,38.866 325.758,44.172 312.717,44.172 L298.504,44.172 L298.504,12.636 L312.717,12.636 C325.758,12.636 332.37,17.941 332.37,28.404 Z M336.541,45.049 C340.541,40.782 342.655,35.027 342.655,28.404 C342.655,12.651 331.556,3.246 312.964,3.246 L288.591,3.246 L288.591,93 L298.504,93 L298.504,53.433 L308.229,53.433 L340.83,92.943 L340.877,93 L353.332,93 L319.847,53.049 C326.837,52.011 332.604,49.249 336.541,45.049 Z" id="Fill-7" fill="#E6001E"></path>
                <path d="M422.454,56.743 L389.894,56.743 L406.174,22.628 L422.454,56.743 Z M406.172,0.779 L362.206,92.776 L362.1,93 L372.628,93 L385.366,66.254 L426.985,66.254 L439.807,92.912 L439.849,93 L450.373,93 L406.313,1.074 L406.172,0.779 Z" id="Fill-8" fill="#E6001E"></path>
                <polyline id="Fill-9" fill="#E6001E" points="472.284 3.246 462.369 3.246 462.369 93 512.724 93 512.724 83.49 472.284 83.49 472.284 3.246"></polyline>
                <path d="M583.319,56.743 L550.76,56.743 L567.039,22.628 L583.319,56.743 Z M567.039,0.779 L522.967,93 L533.493,93 L546.231,66.254 L587.852,66.254 L600.672,92.912 L600.714,93 L611.241,93 L567.181,1.074 L567.039,0.779 Z" id="Fill-10" fill="#E6001E"></path>
                <path d="M668.205,28.404 C668.205,38.866 661.592,44.172 648.55,44.172 L634.341,44.172 L634.341,12.636 L648.55,12.636 C661.592,12.636 668.205,17.941 668.205,28.404 Z M678.49,28.404 C678.49,12.651 667.391,3.246 648.799,3.246 L624.426,3.246 L624.426,93 L634.341,93 L634.341,53.433 L644.063,53.433 L676.375,92.593 L676.713,93 L689.165,93 L655.682,53.049 C669.971,50.929 678.49,41.734 678.49,28.404 Z" id="Fill-11" fill="#E6001E"></path>
                <polyline id="Fill-12" fill="#E6001E" points="744.613 49.876 701.194 0.399 701.194 93 711.109 93 711.109 25.849 744.495 64.116 744.613 64.252 778.116 25.849 778.116 93 788.031 93 788.031 0.399 744.613 49.876"></polyline>
            </g>
        </g>
    </g>
</svg>
