<?xml version="1.0" encoding="utf-8"?>
<!-- Generator: Adobe Illustrator 25.3.1, SVG Export Plug-In . SVG Version: 6.00 Build 0)  -->
<svg version="1.1" id="Layer_1" xmlns="http://www.w3.org/2000/svg" xmlns:xlink="http://www.w3.org/1999/xlink" x="0px" y="0px"
	 viewBox="0 0 202.7 52.9" style="enable-background:new 0 0 202.7 52.9;" xml:space="preserve">
<style type="text/css">
	.st0{fill:#333333;}
	.st1{fill:#00BAFF;}
	.st2{fill:#FFFFFF;}
</style>
<g>
	<g>
		<path class="st0" d="M182.8,22.2c3.2,0,4.9,2.3,4.9,5.3c0,0.3-0.1,1-0.1,1H180c0.2,2,1.7,3,3.3,3c1.8,0,3.1-1.2,3.1-1.2l1.2,1.9
			c0,0-1.7,1.7-4.5,1.7c-3.7,0-6-2.7-6-5.8C177.1,24.6,179.4,22.2,182.8,22.2z M184.9,26.6c0-1.3-1-2.2-2.1-2.2
			c-1.4,0-2.4,0.9-2.7,2.2H184.9z"/>
		<path class="st0" d="M78.3,22.2c3.2,0,4.9,2.3,4.9,5.3c0,0.3-0.1,1-0.1,1h-7.7c0.2,2,1.7,3,3.3,3c1.8,0,3.1-1.2,3.1-1.2l1.2,1.9
			c0,0-1.7,1.7-4.5,1.7c-3.7,0-6-2.7-6-5.8C72.6,24.6,74.9,22.2,78.3,22.2z M80.4,26.6c0-1.3-1-2.2-2.1-2.2c-1.4,0-2.4,0.9-2.7,2.2
			H80.4z"/>
		<path class="st0" d="M110.3,22.2c3.2,0,4.9,2.3,4.9,5.3c0,0.3-0.1,1-0.1,1h-7.7c0.2,2,1.7,3,3.3,3c1.8,0,3.1-1.2,3.1-1.2l1.2,1.9
			c0,0-1.7,1.7-4.5,1.7c-3.7,0-6-2.7-6-5.8C104.6,24.6,106.9,22.2,110.3,22.2z M112.4,26.6c0-1.3-1-2.2-2.1-2.2
			c-1.4,0-2.4,0.9-2.7,2.2H112.4z"/>
		<path class="st0" d="M154.5,25.3c0-0.3-0.2-0.5-0.5-0.5h-0.9v-2.4h2.6c1,0,1.5,0.5,1.5,1.2V24c0,0.2,0,0.5,0,0.5l0,0
			c0.5-0.9,1.7-2.3,3.9-2.3c2.5,0,3.9,1.3,3.9,4.2v4.3c0,0.3,0.2,0.5,0.5,0.5h0.9v2.3h-2.6c-1,0-1.5-0.4-1.5-1.5v-5
			c0-1.4-0.3-2.3-1.7-2.3c-1.5,0-2.6,0.9-3,2.3c-0.2,0.5-0.2,1-0.2,1.5v5.1h-2.7v-8.3H154.5z"/>
		<path class="st0" d="M146.3,22.2c3.4,0,6.1,2.4,6.1,5.8s-2.7,5.8-6.1,5.8c-3.4,0-6.1-2.4-6.1-5.8S142.9,22.2,146.3,22.2z
			 M146.3,31.5c1.8,0,3.3-1.4,3.3-3.5c0-2-1.5-3.5-3.3-3.5S143,25.9,143,28S144.5,31.5,146.3,31.5z"/>
		<path class="st0" d="M138.9,28c0,3.4-1.9,5.8-4.9,5.8c-2.4,0-3.3-1.6-3.3-1.6l0,0c0,0,0,0.4,0,1v4.7h-2.8V25.3
			c0-0.3-0.2-0.5-0.5-0.5h-0.9v-2.4h2.4c1,0,1.4,0.4,1.4,1c0,0.2,0,0.4,0,0.4l0,0c0,0,0.9-1.6,3.4-1.6
			C136.8,22.2,138.9,24.5,138.9,28z M133.4,31.5c1.6,0,2.8-1.4,2.8-3.5c0-2.2-1.3-3.4-2.8-3.4c-1.9,0-2.8,1.7-2.8,3.4
			C130.6,30.4,131.9,31.5,133.4,31.5z"/>
		<path class="st0" d="M117.9,30c0,0,1.4,1.6,3.3,1.6c0.8,0,1.5-0.3,1.5-1.1c0-1.6-5.9-1.5-5.9-5.1c0-2.2,2-3.2,4.3-3.2
			c1.5,0,3.9,0.5,3.9,2.3v1.2h-2.4v-0.5c0-0.5-0.8-0.8-1.4-0.8c-1,0-1.7,0.3-1.7,1c0,1.7,5.9,1.4,5.9,5.1c0,2.1-1.9,3.4-4.3,3.4
			c-3,0-4.6-2-4.6-2L117.9,30z"/>
		<path class="st0" d="M168.6,30c0,0,1.4,1.6,3.3,1.6c0.8,0,1.5-0.3,1.5-1.1c0-1.6-5.9-1.5-5.9-5.1c0-2.2,2-3.2,4.3-3.2
			c1.5,0,3.9,0.5,3.9,2.3v1.2h-2.4v-0.5c0-0.5-0.8-0.8-1.4-0.8c-1,0-1.7,0.3-1.7,1c0,1.7,5.9,1.4,5.9,5.1c0,2.1-1.8,3.4-4.3,3.4
			c-3,0-4.6-2-4.6-2L168.6,30z"/>
		<path class="st0" d="M90.5,31.2c-0.8,0-2.2-0.3-2.2-2.1v-4.5h2.5v-1c0-0.8-0.4-1.2-1.2-1.2H89h-0.7v-3h-2.7v3h-1.5v2.2h1.4v4.8
			c0,3.7,3.1,4.2,4.6,4.2c0.5,0,0.9-0.1,0.9-0.1v-2.4C91,31.2,90.8,31.2,90.5,31.2z"/>
		<path class="st0" d="M64.5,17.8c3.8,0,5.6,2,5.6,2l-1.6,2c0,0-1.6-1.4-4-1.4c-2.7,0-5,2.1-5,5.3c0,3.4,2.3,5.5,5.1,5.5
			c2.5,0,3.9-1.6,3.9-1.6v-1.2c0-0.3-0.2-0.5-0.5-0.5h-0.9v-2.4h2.5c1,0,1.5,0.4,1.5,1.5v6.6h-2.4v-0.7c0-0.3,0-0.7,0-0.7l0,0
			c0,0-1.7,1.7-4.6,1.7c-4.1,0-7.5-3.1-7.5-8.1C56.6,21.3,60,17.8,64.5,17.8z"/>
		<path class="st0" d="M92.6,18.1h5.5c2.8,0,4.8,1.7,4.8,4.7c0,2.8-1.9,3.9-2.6,4.1l0,0c0,0,0.5,0.2,0.8,0.8l1.5,3
			c0.2,0.5,0.6,0.5,1.1,0.5h0.3v2.4h-1.5c-1.2,0-1.7-0.2-2.2-1.2l-2-3.9c-0.3-0.6-0.7-0.7-1.5-0.7h-1.4v5.8h-2.9L92.6,18.1
			L92.6,18.1z M97.7,25.3c1.4,0,2.3-0.9,2.3-2.4s-0.9-2.4-2.2-2.4h-2.3v4.8H97.7z"/>
	</g>
	<g>
		<g>
			<path class="st1" d="M49,35.2c0,0.8-0.7,1.5-1.5,1.5h-31c-0.8,0-1.5-0.7-1.5-1.5V16.5c0-0.8,0.6-1.5,1.5-1.5h31.1
				c0.8,0,1.5,0.7,1.5,1.5L49,35.2L49,35.2z"/>
		</g>
		<path class="st2" d="M48.6,15.5c-4,6.3-10.3,12-16.7,11.8c-2.4-0.1-5.1-0.7-7.4-2.6c-1.7-1.4-3.4-3.6-4.1-6.7c-0.3,0-0.5,0-0.7,0
			c-1,0-1.7,0.9-1.5,1.8c0,0.2,0.1,0.4,0.1,0.6c0.5,3,2.3,6.4,5.3,8.6c2.4,1.9,5.2,3,8.4,3c5.7,0,11.7-3.6,17-12.9v-2.7
			C49,16.1,48.8,15.8,48.6,15.5z"/>
	</g>
</g>
</svg>
