<?xml version="1.0" encoding="UTF-8" standalone="no"?>
<!-- Generator: Adobe Illustrator 24.1.3, SVG Export Plug-In . SVG Version: 6.00 Build 0)  -->

<svg
   version="1.1"
   id="Layer_1"
   x="0px"
   y="0px"
   width="566.92902"
   height="159.263"
   viewBox="0 0 566.92901 159.263"
   xml:space="preserve"
   sodipodi:docname="ibexa_logo_wordmark.svg"
   inkscape:version="1.1.1 (3bf5ae0d25, 2021-09-20)"
   xmlns:inkscape="http://www.inkscape.org/namespaces/inkscape"
   xmlns:sodipodi="http://sodipodi.sourceforge.net/DTD/sodipodi-0.dtd"
   xmlns="http://www.w3.org/2000/svg"
   xmlns:svg="http://www.w3.org/2000/svg"><defs
   id="defs35" /><sodipodi:namedview
   id="namedview33"
   pagecolor="#ffffff"
   bordercolor="#666666"
   borderopacity="1.0"
   inkscape:pageshadow="2"
   inkscape:pageopacity="0.0"
   inkscape:pagecheckerboard="0"
   showgrid="false"
   fit-margin-top="0"
   fit-margin-left="0"
   fit-margin-right="0"
   fit-margin-bottom="0"
   inkscape:zoom="1.4665466"
   inkscape:cx="-577.20634"
   inkscape:cy="81.483943"
   inkscape:window-width="3838"
   inkscape:window-height="1928"
   inkscape:window-x="0"
   inkscape:window-y="0"
   inkscape:window-maximized="1"
   inkscape:current-layer="Layer_1" />

<linearGradient
   id="SVGID_1_"
   gradientUnits="userSpaceOnUse"
   x1="136.6132"
   y1="296.12311"
   x2="703.54242"
   y2="296.12311">
	<stop
   offset="0"
   style="stop-color:#EA571C"
   id="stop4" />
	<stop
   offset="0.1151"
   style="stop-color:#E95026"
   id="stop6" />
	<stop
   offset="0.3315"
   style="stop-color:#E83E3A"
   id="stop8" />
	<stop
   offset="0.6176"
   style="stop-color:#E61850"
   id="stop10" />
</linearGradient>

<rect
   x="1587.1659"
   style="fill:#171620"
   width="841.89001"
   height="595.276"
   id="rect15"
   y="-216.492" />
<path
   style="fill:#ffffff"
   d="m 2167.608,9.22 h -37.341 l -51.878,51.878 -11.51,-10.833 -18.671,18.671 11.51,10.833 -28.435,28.435 -0.022,-0.019 c -7.545,6.233 -22.076,14.803 -32.608,14.803 -6.395,0 -12.455,-1.415 -17.935,-3.894 0,0 72.303,-73.333 76.933,-77.962 l -3.94,-4.133 c -16.638,-17.059 -36.607,-27.181 -55.59,-27.181 -38.603,0 -70.008,31.406 -70.008,70.008 0,38.603 31.406,70.009 70.008,70.009 18.056,0 33.878,-6.028 53.531,-24.698 l 26.734,-26.693 48.607,48.63 h 37.341 l -67.277,-67.302 z m -212.651,70.074 c 0,-24.093 19.601,-43.694 43.694,-43.694 8.665,0 16.732,2.551 23.522,6.923 l -60.289,60.289 c -4.363,-6.798 -6.927,-14.857 -6.927,-23.518 z m -223.339,-7.478 19.008,-19.161 v 96.809 H 1723.78 V 90.848 c -10e-4,-7.13 2.817,-13.97 7.838,-19.032 z m 19.008,-65.883 v 16.755 c 0,0.019 -0.01,0.038 -0.021,0.051 l -20.36,20.359 c -2.386,2.386 -6.465,0.696 -6.465,-2.678 V 5.933 c 0,-0.04 0.032,-0.073 0.073,-0.073 h 26.701 c 0.039,10e-4 0.072,0.033 0.072,0.073 z m 540.083,126.388 -0.129,-54.014 c -0.802,-37.913 -31.888,-68.508 -69.989,-68.508 -38.603,0 -70.009,31.406 -70.009,70.009 0,38.602 31.406,70.008 70.009,70.008 16.242,0 31.21,-5.561 43.101,-14.878 l -0.115,24.325 z m -70.651,-8.287 c -24.093,0 -43.695,-19.602 -43.695,-43.694 0,-24.094 19.601,-43.695 43.695,-43.695 24.094,0 43.694,19.601 43.694,43.695 0,24.092 -19.6,43.694 -43.694,43.694 z M 1845.645,9.447 c -16.242,0 -31.21,5.561 -43.101,14.878 L 1802.659,0 l -27.132,26.941 0.113,54.047 0.016,-0.033 c 0.802,37.913 31.888,68.508 69.989,68.508 38.603,0 70.009,-31.406 70.009,-70.009 0,-38.601 -31.406,-70.007 -70.009,-70.007 z m 0.532,113.171 c -24.093,0 -43.694,-19.601 -43.694,-43.695 0,-24.093 19.601,-43.694 43.694,-43.694 24.093,0 43.695,19.601 43.695,43.694 0,24.093 -19.602,43.695 -43.695,43.695 z"
   id="path17" />
<path
   style="fill:#020304"
   d="m 1305.718,9.22 h -37.341 l -51.878,51.878 -11.51,-10.833 -18.671,18.671 11.51,10.833 -28.435,28.435 -0.022,-0.019 c -7.545,6.233 -22.076,14.803 -32.608,14.803 -6.395,0 -12.455,-1.415 -17.935,-3.894 0,0 72.304,-73.333 76.933,-77.962 l -3.94,-4.133 c -16.638,-17.059 -36.608,-27.181 -55.59,-27.181 -38.603,0 -70.008,31.406 -70.008,70.008 0,38.603 31.406,70.009 70.008,70.009 18.056,0 33.878,-6.028 53.531,-24.698 l 26.734,-26.693 48.608,48.63 h 37.341 l -67.277,-67.302 z m -212.651,70.074 c 0,-24.093 19.601,-43.694 43.694,-43.694 8.665,0 16.732,2.551 23.523,6.923 l -60.289,60.289 c -4.363,-6.798 -6.928,-14.857 -6.928,-23.518 z M 869.728,71.816 888.736,52.655 v 96.809 H 861.89 V 90.848 c 0,-7.13 2.817,-13.97 7.838,-19.032 z M 888.736,5.933 v 16.755 c 0,0.019 -0.01,0.038 -0.021,0.051 l -20.36,20.359 c -2.386,2.386 -6.465,0.696 -6.465,-2.678 V 5.933 c 0,-0.04 0.032,-0.073 0.073,-0.073 h 26.701 c 0.039,10e-4 0.072,0.033 0.072,0.073 z m 540.083,126.388 -0.129,-54.014 c -0.802,-37.913 -31.888,-68.508 -69.989,-68.508 -38.603,0 -70.009,31.406 -70.009,70.009 0,38.602 31.406,70.008 70.009,70.008 16.242,0 31.21,-5.561 43.101,-14.878 l -0.115,24.325 z m -70.65,-8.287 c -24.093,0 -43.695,-19.602 -43.695,-43.694 0,-24.094 19.602,-43.695 43.695,-43.695 24.093,0 43.694,19.601 43.694,43.695 0,24.092 -19.601,43.694 -43.694,43.694 z M 983.755,9.447 c -16.242,0 -31.21,5.561 -43.101,14.878 L 940.769,0 l -27.132,26.941 0.113,54.047 0.016,-0.033 c 0.802,37.913 31.888,68.508 69.989,68.508 38.603,0 70.009,-31.406 70.009,-70.009 0,-38.601 -31.406,-70.007 -70.009,-70.007 z m 0.533,113.171 c -24.093,0 -43.694,-19.601 -43.694,-43.695 0,-24.093 19.601,-43.694 43.694,-43.694 24.093,0 43.695,19.601 43.695,43.694 0,24.093 -19.602,43.695 -43.695,43.695 z"
   id="path19" />
<linearGradient
   id="SVGID_2_"
   gradientUnits="userSpaceOnUse"
   x1="998.50299"
   y1="296.12311"
   x2="1565.4321"
   y2="296.12311"
   gradientTransform="translate(-998.503,-216.492)">
	<stop
   offset="0"
   style="stop-color:#EA571C"
   id="stop21" />
	<stop
   offset="0.1151"
   style="stop-color:#E95026"
   id="stop23" />
	<stop
   offset="0.3315"
   style="stop-color:#E83E3A"
   id="stop25" />
	<stop
   offset="0.6176"
   style="stop-color:#E61850"
   id="stop27" />
</linearGradient>
<path
   style="fill:url(#SVGID_2_)"
   d="M 443.829,9.22 H 406.488 L 354.61,61.098 343.1,50.265 l -18.671,18.671 11.51,10.833 -28.435,28.435 -0.022,-0.019 c -7.545,6.233 -22.076,14.803 -32.608,14.803 -6.395,0 -12.455,-1.415 -17.935,-3.894 0,0 72.304,-73.333 76.932,-77.962 l -3.94,-4.133 C 313.293,19.94 293.324,9.818 274.341,9.818 c -38.603,0 -70.008,31.406 -70.008,70.008 0,38.603 31.406,70.009 70.008,70.009 18.057,0 33.878,-6.028 53.531,-24.698 l 26.734,-26.693 48.608,48.63 h 37.341 L 373.278,79.772 Z M 231.178,79.294 c 0,-24.093 19.601,-43.694 43.694,-43.694 8.664,0 16.732,2.551 23.522,6.923 l -60.289,60.289 c -4.363,-6.798 -6.927,-14.857 -6.927,-23.518 z M 7.838,71.816 26.846,52.655 v 96.809 H 0 V 90.848 C 0,83.718 2.817,76.878 7.838,71.816 Z M 26.846,5.933 v 16.755 c 0,0.019 -0.01,0.038 -0.021,0.051 L 6.465,43.098 C 4.079,45.484 0,43.794 0,40.42 V 5.933 C 0,5.893 0.032,5.86 0.073,5.86 h 26.701 c 0.04,10e-4 0.072,0.033 0.072,0.073 z M 566.929,132.321 566.8,78.307 C 565.998,40.394 534.912,9.799 496.811,9.799 c -38.603,0 -70.009,31.406 -70.009,70.009 0,38.602 31.406,70.008 70.009,70.008 16.242,0 31.21,-5.561 43.101,-14.878 l -0.115,24.325 z m -70.65,-8.287 c -24.093,0 -43.695,-19.602 -43.695,-43.694 0,-24.094 19.601,-43.695 43.695,-43.695 24.093,0 43.694,19.601 43.694,43.695 0,24.092 -19.601,43.694 -43.694,43.694 z M 121.865,9.447 c -16.242,0 -31.21,5.561 -43.101,14.878 L 78.879,0 51.747,26.941 51.86,80.988 51.876,80.955 c 0.802,37.913 31.888,68.508 69.989,68.508 38.603,0 70.008,-31.406 70.008,-70.009 C 191.874,40.853 160.468,9.447 121.865,9.447 Z m 0.533,113.171 c -24.093,0 -43.694,-19.601 -43.694,-43.695 0,-24.093 19.601,-43.694 43.694,-43.694 24.093,0 43.695,19.601 43.695,43.694 -10e-4,24.093 -19.602,43.695 -43.695,43.695 z"
   id="path30" />
</svg>
