<?xml version="1.0" encoding="UTF-8" standalone="no"?>
<svg
   xmlns:dc="http://purl.org/dc/elements/1.1/"
   xmlns:cc="http://creativecommons.org/ns#"
   xmlns:rdf="http://www.w3.org/1999/02/22-rdf-syntax-ns#"
   xmlns:svg="http://www.w3.org/2000/svg"
   xmlns="http://www.w3.org/2000/svg"
   xmlns:sodipodi="http://sodipodi.sourceforge.net/DTD/sodipodi-0.dtd"
   xmlns:inkscape="http://www.inkscape.org/namespaces/inkscape"
   id="Layer_1"
   data-name="Layer 1"
   viewBox="0 0 93.919998 34.849998"
   version="1.1"
   sodipodi:docname="kartenmacherei.svg"
   inkscape:version="1.0.1 (3bc2e813f5, 2020-09-07)">
  <metadata
     id="metadata13">
    <rdf:RDF>
      <cc:Work
         rdf:about="">
        <dc:format>image/svg+xml</dc:format>
        <dc:type
           rdf:resource="http://purl.org/dc/dcmitype/StillImage" />
        <dc:title>Kartenmacherei-IconsVectors-2015-12-08</dc:title>
      </cc:Work>
    </rdf:RDF>
  </metadata>
  <sodipodi:namedview
     pagecolor="#ffffff"
     bordercolor="#666666"
     borderopacity="1"
     objecttolerance="10"
     gridtolerance="10"
     guidetolerance="10"
     inkscape:pageopacity="0"
     inkscape:pageshadow="2"
     inkscape:window-width="2880"
     inkscape:window-height="1556"
     id="namedview11"
     showgrid="false"
     fit-margin-top="0"
     fit-margin-left="0"
     fit-margin-right="0"
     fit-margin-bottom="0"
     inkscape:zoom="10.08"
     inkscape:cx="47"
     inkscape:cy="17.43"
     inkscape:window-x="0"
     inkscape:window-y="0"
     inkscape:window-maximized="1"
     inkscape:current-layer="Layer_1" />
  <defs
     id="defs4">
    <style
       id="style2">.cls-1{fill:#057fa2;}</style>
  </defs>
  <title
     id="title6">Kartenmacherei-IconsVectors-2015-12-08</title>
  <path
     class="cls-1"
     d="m 3.24,12.43 0.85,-0.92 3.48,4.92 H 11.2 L 6.4,9.61 11,4.43 H 7.39 L 3.28,9.3 V 9.3 0 H 0.09 v 16.43 h 3.15 z m 16.08,2.14 v 1.86 h 3 v -8.2 c 0,-2.39 -2,-4 -5.05,-4 -3.05,0 -5,1.58 -5.11,3.86 h 2.88 a 1.94,1.94 0 0 1 2.09,-1.48 c 1.3,0 2.08,0.63 2.08,1.78 v 0.79 l -3,0.18 c -3,0.18 -4.68,1.41 -4.68,3.59 0,2.18 1.72,3.59 4,3.59 a 4.06,4.06 0 0 0 3.64,-2 h 0.06 z m -2.68,-0.33 c -1.14,0 -1.89,-0.55 -1.89,-1.44 0,-0.89 0.7,-1.4 2,-1.49 l 2.49,-0.17 v 0.88 a 2.39,2.39 0 0 1 -2.59,2.24 z M 27.59,6.59 H 27.53 V 4.43 h -3 v 12 h 3.15 v -6.7 a 2.39,2.39 0 0 1 2.54,-2.67 3.16,3.16 0 0 1 1.13,0.2 V 4.43 a 3.06,3.06 0 0 0 -0.89,-0.12 2.8,2.8 0 0 0 -2.87,2.3 z m 5.93,6.6 c 0,2.34 1.08,3.27 3.83,3.27 a 8.31,8.31 0 0 0 1.52,-0.13 V 14 a 5.39,5.39 0 0 1 -0.79,0.05 1.22,1.22 0 0 1 -1.41,-1.37 V 6.87 h 2.2 V 4.43 h -2.2 V 1.8 h -3.15 v 2.63 h -1.61 v 2.4 h 1.61 v 6.34 z m 12.38,3.45 c 2.89,0 5,-1.54 5.39,-3.86 h -2.9 A 2.39,2.39 0 0 1 46,14.27 2.68,2.68 0 0 1 43.18,11.43 v -0.2 h 8.2 v -1 c 0,-3.64 -2.18,-5.95 -5.6,-5.95 -3.42,0 -5.71,2.44 -5.71,6.24 0,3.8 2.21,6.12 5.83,6.12 z m -0.09,-10 a 2.47,2.47 0 0 1 2.53,2.59 h -5.13 a 2.6,2.6 0 0 1 2.6,-2.6 z m 15.28,2.79 v 7 h 3.15 V 8.76 c 0,-2.79 -1.6,-4.47 -4.23,-4.47 A 3.88,3.88 0 0 0 56.19,6.61 H 56.12 V 4.43 h -3 v 12 h 3.15 V 9.61 A 2.47,2.47 0 0 1 58.8,6.94 2.19,2.19 0 0 1 61.09,9.43 Z M 13.57,22.51 A 3.78,3.78 0 0 0 9.88,24.96 H 9.81 A 3.16,3.16 0 0 0 6.5,22.51 3.48,3.48 0 0 0 3.11,24.86 H 3 V 22.69 H 0 v 12 h 3.15 v -7.26 a 2.12,2.12 0 0 1 2.1,-2.32 1.85,1.85 0 0 1 2,2.05 v 7.46 h 3 v -7.19 a 2.06,2.06 0 0 1 2.07,-2.27 1.88,1.88 0 0 1 2,2.17 v 7.34 h 3.15 v -8.15 a 3.74,3.74 0 0 0 -3.9,-4.01 z m 11.19,0 c -3,0 -5,1.58 -5.11,3.86 h 2.88 a 1.94,1.94 0 0 1 2.09,-1.48 c 1.3,0 2.08,0.63 2.08,1.78 v 0.76 l -3,0.18 c -3,0.18 -4.68,1.41 -4.68,3.59 0,2.18 1.72,3.59 4,3.59 a 4.06,4.06 0 0 0 3.64,-2 h 0.06 v 1.85 h 3 v -8.21 c 0.09,-2.37 -1.9,-4 -4.96,-4 z m 2,7.79 a 2.39,2.39 0 0 1 -2.62,2.22 c -1.14,0 -1.89,-0.55 -1.89,-1.44 0,-0.89 0.7,-1.4 2,-1.49 l 2.47,-0.16 v 0.88 z m 10.62,2.09 c -1.63,0 -2.66,-1.35 -2.66,-3.69 0,-2.34 1,-3.69 2.64,-3.69 a 2.31,2.31 0 0 1 2.41,2.12 h 2.94 c -0.19,-2.7 -2.23,-4.7 -5.43,-4.7 -3.53,0 -5.8,2.39 -5.8,6.19 0,3.8 2.27,6.2 5.82,6.2 3.12,0 5.19,-1.77 5.38,-4.56 h -2.93 a 2.25,2.25 0 0 1 -2.41,2.09 z m 14,-9.84 a 3.91,3.91 0 0 0 -3.84,2.32 h -0.1 v -6.65 h -3.1 v 16.44 h 3.16 v -6.8 a 2.52,2.52 0 0 1 2.58,-2.71 2.27,2.27 0 0 1 2.41,2.51 v 7 h 3.15 V 27 c 0,-2.77 -1.64,-4.49 -4.29,-4.49 z M 63,22.43 c -3.49,0 -5.71,2.44 -5.71,6.24 0,3.8 2.21,6.14 5.83,6.14 2.89,0 5,-1.54 5.39,-3.86 h -2.9 a 2.39,2.39 0 0 1 -2.43,1.49 2.68,2.68 0 0 1 -2.77,-2.89 v -0.12 h 8.2 v -1 c -0.02,-3.65 -2.2,-6 -5.61,-6 z m -2.57,5 a 2.6,2.6 0 0 1 2.57,-2.58 2.47,2.47 0 0 1 2.55,2.58 h -5.13 z m 13,-2.61 h -0.1 v -2.13 h -3 v 12 h 3.15 v -6.7 a 2.39,2.39 0 0 1 2.52,-2.71 3.16,3.16 0 0 1 1.13,0.2 v -2.82 a 3.06,3.06 0 0 0 -0.89,-0.12 2.8,2.8 0 0 0 -2.85,2.29 z m 10,-2.35 c -3.49,0 -5.71,2.44 -5.71,6.24 0,3.8 2.21,6.14 5.83,6.14 2.89,0 5,-1.54 5.39,-3.86 H 86 A 2.39,2.39 0 0 1 83.57,32.48 2.68,2.68 0 0 1 80.8,29.59 V 29.43 H 89 v -1 c 0,-3.65 -2.21,-6 -5.63,-6 z m -2.63,4.96 a 2.6,2.6 0 0 1 2.6,-2.59 2.47,2.47 0 0 1 2.53,2.59 z m 9.92,7.22 h 3.15 v -12 h -3.15 z m 1.57,-13.22 a 1.66,1.66 0 1 0 -1.69,-1.66 1.67,1.67 0 0 0 1.69,1.66 z"
     id="path8" />
</svg>
