<?xml version="1.0" encoding="utf-8"?>
<!-- Generator: Adobe Illustrator 24.2.1, SVG Export Plug-In . SVG Version: 6.00 Build 0)  -->
<svg version="1.1" id="Layer_3" xmlns="http://www.w3.org/2000/svg" xmlns:xlink="http://www.w3.org/1999/xlink" x="0px" y="0px"
	 viewBox="0 0 305.5 73.2" style="enable-background:new 0 0 305.5 73.2;" xml:space="preserve">
<style type="text/css">
	.st0{fill:#010202;}
</style>
<polygon class="st0" points="270.9,31 285.2,11.5 270.6,11.5 263.3,21.5 246,0 230.8,0 256.1,31.3 239.9,53.3 254.5,53.3 
	263.7,40.8 289.8,73.2 304.9,73.2 "/>
<polygon class="st0" points="235.8,26 235.8,53.3 224,53.3 224,11.5 "/>
<path class="st0" d="M210.2,54.7c-3.9,0-7.4-1-9.5-3c-2-2-3.1-4.8-3.1-8.5v-22h-7v-9.7h7V0h11.8v11.5h8.6v9.7h-8.6v19
	c0,1.3,0.3,2.4,1,3.3c0.7,0.9,1.6,1.3,2.8,1.3c1.7,0,4-0.9,4.8-1.7l0,9.9C218,53,213.5,54.7,210.2,54.7"/>
<path class="st0" d="M172.8,11.5h11.8v41.9h-11.8v-5.4c-4,6.1-9.3,6.8-12.1,6.8c-12.1,0-20.2-10.1-20.2-22.3
	c0-12.4,7.9-22.2,19.6-22.2c3,0,8.9,0.6,12.7,6.8V11.5z M151.1,32.3c0,6.7,4.6,11.9,10.9,11.9c6.4,0,11-5.2,11-11.9
	c0-6.7-4.6-11.8-11-11.8C155.7,20.6,151.1,25.7,151.1,32.3"/>
<path class="st0" d="M95,11.5h11.8v5.4c2.2-3.1,6.2-6.8,13-6.8c3.7,0,9.1,1.1,12.4,5.1c2.9,3.6,3.3,7.7,3.3,11.8v26.3h-11.8V30.5
	c0-2.3-0.1-6-2.2-8.2c-1.8-1.9-4.4-2.1-5.5-2.1c-3.1,0-5.5,1.1-7.3,3.7c-1.7,2.7-1.8,5.7-1.8,8.1v21.4H95V11.5z"/>
<polygon class="st0" points="58.6,46.7 38.9,11.5 52.6,11.5 65.2,34.2 77.2,11.5 90.5,11.5 58,73.2 44.7,73.2 "/>
<path class="st0" d="M19,54.7c-3.7,0-7.2-0.6-10.6-1.8C5,51.8,2.2,50.1,0,48.1l4.8-7.8c1.6,1.5,3.9,2.9,6.7,4c2.8,1.2,5.5,1.8,8,1.8
	c2.3,0,4.1-0.4,5.3-1.2c1.2-0.8,1.8-1.9,1.8-3.3c0-1.1-0.6-1.9-1.9-2.6c-1.3-0.7-2.9-1.1-4.7-1.5c-1.8-0.4-3.7-0.8-6.1-1.3
	C11.8,35.7,9.8,34.8,8,34c-1.8-0.8-3.4-2.1-4.7-3.9c-1.3-1.8-1.9-4-1.9-6.6c0-3.8,1.6-6.9,4.7-9.5c3.1-2.6,7.4-3.9,12.7-3.9
	c6.6,0,12.3,1.9,17.1,5.8l-4.5,7.6c-1.3-1.4-3.2-2.6-5.4-3.5c-2.3-0.9-4.6-1.4-7.2-1.4c-2,0-3.6,0.4-4.8,1.2c-1.2,0.8-1.8,1.8-1.8,3
	c0,0.9,0.6,1.7,1.8,2.3c1.2,0.6,2.7,1,4.6,1.4c1.8,0.3,4,0.8,6.1,1.4c2.2,0.6,4.2,1.3,6.1,2.2c1.9,0.9,3.4,2.2,4.7,4.1
	c1.2,1.9,1.8,4.2,1.8,6.9c0,4-1.6,7.3-4.9,9.8C29.2,53.4,24.7,54.7,19,54.7"/>
</svg>
