<svg id="Ebene_1" xmlns="http://www.w3.org/2000/svg" viewBox="0 0 170 40.4"><style>.st0{fill:#EA650D;}</style><path class="st0" d="M46.2 10.3c-.7 0-1.3.6-1.3.6v10.8c.2 3.4 3.2 7.9 9.4 7.9s6.2-1.5 7.8-3.2v12.7c0 .2.2.8 1.1.8 1 0 1.5-.6 1.5-.8V11c0-.1-.4-.6-1.3-.6-.8 0-1.4.6-1.4.6v8.6c0 3.9-2.3 7.2-7.4 7.2-5.2 0-7-4-7-7.2v-8.7c0-.1-.6-.6-1.4-.6zm33.7.1c-6.1 0-10 4.7-10 7.9v10.5c0 .2.9.6 1.2.6.3 0 1.5-.2 1.5-.6V18.4c0-.6 2.4-5.3 7.5-5.3s6.8 4.8 6.8 5.3v10.5c0 .4.9.6 1.1.6s1.6-.2 1.6-.6V18.4c0-3.6-3.6-8-9.7-8zm23.7.2c-7.6-.1-10 4.1-10 9.4 0 6 2.7 9.4 10 9.4 3.6 0 6.2-1 7.8-2.7v1.9c0 .2.3.8.9.8.6 0 1.2-.6 1.2-.8V20c.1-6.2-2.9-9.4-9.9-9.4zm-.1 16.1c-5.3 0-7.2-2.4-7.2-6.6 0-3.7 1.6-6.7 7.2-6.6 5 0 7.2 2.3 7.2 6.6 0 3.9-2 6.6-7.2 6.6zm14-20.3v15.1c0 2.3 2.5 7.9 9.8 7.9s9.1-4.5 9.1-5.3c0-.7-1.1-1.4-1.9-1.1-.7.3-2.1 3.6-7.1 3.6-4.8 0-7-3.6-7-5.2v-4.7h15.5c1.3 0 1.6-2.8 0-2.8h-15.5V6.2c.1-1.2-2.9-1.1-2.9.2zm23.8 4.5V29s2.6 1.2 2.6 0V10.9c.1-1-2.6-1-2.6 0zm28.7 5.5v-5.3c0-1.4-2.6-1.2-2.6 0v4.8c0 1.9-2.5 3.7-3.1 3.7h-8.5c-1.1 0-3.2-2.3-3.2-3.8v-4.6c0-1.3-2.4-1.4-2.4 0v5.6c0 1.9 2.3 4.2 2.3 4.2h-.2s-2.3 1.9-2.3 3.6v4.6c0 1.1 2.4 1.1 2.4 0v-3.8c0-1.2 2.1-3.2 3.2-3.2h8.5c.6 0 3.1 1.5 3.1 3.1v4c0 1 2.6 1.1 2.6 0v-4.4c0-2.1-2.3-3.7-2.4-3.8h.2c0-.1 2.4-2.1 2.4-4.7zM20.2 0C9.1 0 0 9.1 0 20.2s9.1 20.2 20.2 20.2 20.2-9.1 20.2-20.2C40.5 9.1 31.4 0 20.2 0zm.1 3.9c5.3 0 9.9 2.5 12.9 6.4H14.4c-3.2 0-5 2.8-5 5.2 0 2.5 1.8 5.3 5 5.3h10.9c1.9 0 2.8 1.5 2.8 2.8 0 1.9-1 3-2.8 3H5.2c-.8-1.9-1.2-4-1.2-6.2 0-9.1 7.3-16.5 16.3-16.5zm0 32.9c-5.6 0-10.5-2.8-13.5-7.2h18.3c4.8 0 6.1-4.1 6.1-6 0-1.3-.6-5.9-5.5-5.9h-11c-1.4 0-1.9-1.5-1.9-2.3s.5-2.2 2-2.1h20.4c1 2.1 1.5 4.5 1.5 7 0 9.2-7.4 16.5-16.4 16.5z"/></svg>