<?xml version="1.0" encoding="UTF-8" standalone="no"?>
<svg
   xmlns:dc="http://purl.org/dc/elements/1.1/"
   xmlns:cc="http://creativecommons.org/ns#"
   xmlns:rdf="http://www.w3.org/1999/02/22-rdf-syntax-ns#"
   xmlns:svg="http://www.w3.org/2000/svg"
   xmlns="http://www.w3.org/2000/svg"
   xmlns:sodipodi="http://sodipodi.sourceforge.net/DTD/sodipodi-0.dtd"
   xmlns:inkscape="http://www.inkscape.org/namespaces/inkscape"
   sodipodi:docname="thephpcc.svg"
   xml:space="preserve"
   height="73.301247"
   width="78.591003"
   inkscape:version="1.0 (4035a4fb49, 2020-05-01)"
   version="1.1"
   id="svg2"><metadata
     id="metadata8"><rdf:RDF><cc:Work
         rdf:about=""><dc:format>image/svg+xml</dc:format><dc:type
           rdf:resource="http://purl.org/dc/dcmitype/StillImage" /><dc:title></dc:title></cc:Work></rdf:RDF></metadata><defs
     id="defs6"><clipPath
       id="clipPath16"
       clipPathUnits="userSpaceOnUse"><path
         id="path18"
         d="M 12.496,12.496 H 270.449 V 185.409 H 12.496 Z" /></clipPath><clipPath
       id="clipPath46"
       clipPathUnits="userSpaceOnUse"><path
         id="path48"
         d="m 184.555,99.859 h 62.873 v 62.874 h -62.873 z" /></clipPath><clipPath
       id="clipPath62"
       clipPathUnits="userSpaceOnUse"><path
         id="path64"
         d="M 0,0 H 282.945 V 197.906 H 0 Z" /></clipPath></defs><sodipodi:namedview
     fit-margin-bottom="0"
     fit-margin-right="0"
     fit-margin-left="0"
     fit-margin-top="0"
     inkscape:document-rotation="0"
     inkscape:current-layer="g10"
     inkscape:window-maximized="1"
     inkscape:window-y="0"
     inkscape:window-x="0"
     inkscape:cy="79.72425"
     inkscape:cx="-235.80821"
     inkscape:zoom="1.0469617"
     showgrid="false"
     id="namedview4"
     inkscape:window-height="1556"
     inkscape:window-width="2880"
     inkscape:pageshadow="2"
     inkscape:pageopacity="0"
     guidetolerance="10"
     gridtolerance="10"
     objecttolerance="10"
     borderopacity="1"
     bordercolor="#666666"
     pagecolor="#ffffff" /><g
     transform="matrix(1.25,0,0,-1.25,-230.69375,203.4155)"
     inkscape:label="php.cc VK Arne"
     inkscape:groupmode="layer"
     id="g10"><g
       id="g42"><g
         clip-path="url(#clipPath46)"
         id="g44"><g
           transform="translate(236.9548,136.0544)"
           id="g50"><path
             id="path52"
             style="fill:#f89c0e;fill-opacity:1;fill-rule:nonzero;stroke:none"
             d="m 0,0 c -2.229,0 -3.698,-1.733 -3.698,-4.226 0,-2.641 1.337,-4.061 3.384,-4.061 0.611,0 1.156,0.132 1.371,0.231 L 0.874,-6.355 C 0.643,-6.471 0.38,-6.521 0.066,-6.521 c -1.007,0 -1.618,0.892 -1.618,2.361 0,1.403 0.611,2.394 1.651,2.394 0.363,0 0.627,-0.083 0.809,-0.149 l 0.281,1.701 C 0.974,-0.115 0.512,0 0,0 M 5.332,0 C 3.103,0 1.634,-1.733 1.634,-4.226 c 0,-2.641 1.337,-4.061 3.384,-4.061 0.611,0 1.156,0.132 1.371,0.231 L 6.207,-6.355 C 5.976,-6.471 5.712,-6.521 5.398,-6.521 c -1.007,0 -1.618,0.892 -1.618,2.361 0,1.403 0.611,2.394 1.651,2.394 0.363,0 0.627,-0.083 0.809,-0.149 l 0.281,1.701 C 6.306,-0.115 5.844,0 5.332,0 M -5.976,-8.32 c 0.76,0 1.271,0.561 1.271,1.436 0,0.892 -0.561,1.436 -1.255,1.436 -0.66,0 -1.271,-0.61 -1.271,-1.436 0,-0.875 0.578,-1.436 1.239,-1.436 z M -23.64,26.678 h 9.595 c 0,0 4.974,0 4.974,-4.974 v -4.615 l 0.015,0.015 v -5.005 c 0,-4.974 4.973,-4.974 4.973,-4.974 H 1.076 L 1.075,7.123 h 4.424 c 0,0 4.974,0 4.974,-4.974 v -9.595 c 0,0 0,-4.974 -4.974,-4.974 H 0.894 l 0.01,-0.01 h -5.005 c -4.687,0 -4.958,-4.413 -4.973,-4.922 0,-0.015 0.003,-0.027 0.003,-0.042 v -9.595 c 0,0 0,-4.974 -4.974,-4.974 h -9.595 c 0,0 -4.974,0 -4.974,4.974 v 9.595 c 0,0 0,4.974 4.974,4.974 h 4.606 l -0.01,0.009 h 5.005 c 4.662,0 4.954,4.369 4.973,4.918 0,0.016 -0.003,0.03 -0.003,0.047 v 4.608 l -0.007,-0.006 v 5.005 c 0,4.974 -4.973,4.974 -4.973,4.974 h -5.159 v 0 h -4.432 c 0,0 -4.974,0 -4.974,4.974 v 9.595 c 0,0 0,4.974 4.974,4.974" /></g><g
           transform="translate(186.7997,127.7674)"
           id="g54"><path
             id="path56"
             style="fill:#162d66;fill-opacity:1;fill-rule:nonzero;stroke:none"
             d="M 0,0 C 0.578,0 1.024,0.066 1.321,0.149 L 1.304,1.833 C 1.123,1.799 0.957,1.783 0.743,1.783 c -0.429,0 -0.825,0.231 -0.825,1.172 v 3.681 h 1.156 v 1.536 h -1.156 v 2.112 L -2.245,9.649 V 8.172 6.636 2.823 c 0,-1.272 0.248,-1.882 0.693,-2.311 C -1.172,0.149 -0.627,0 0,0 M 6.388,0.099 H 8.551 V 5.002 C 8.551,7.049 7.973,8.304 6.488,8.304 6.091,8.304 5.712,8.205 5.398,8.023 5.134,7.841 4.886,7.61 4.705,7.33 H 4.672 v 4.193 L 2.509,10.901 V 0.099 h 2.163 v 5.018 c 0,0.182 0.049,0.479 0.082,0.612 0.165,0.544 0.479,0.759 0.842,0.759 0.644,0 0.792,-0.694 0.792,-1.486 z M 13.8,4.886 h -1.914 c 0.016,0.809 0.297,1.849 1.006,1.849 0.644,0 0.908,-0.808 0.908,-1.849 m 1.899,-1.518 c 0.049,0.231 0.066,0.544 0.066,1.122 0,2.443 -1.007,3.814 -2.74,3.814 C 11.192,8.304 9.789,6.686 9.789,3.979 9.789,1.453 10.994,0 13.19,0 c 0.825,0 1.667,0.149 2.228,0.363 l -0.297,1.552 c -0.38,-0.132 -0.924,-0.264 -1.535,-0.264 -0.958,0 -1.684,0.462 -1.717,1.717 z m 6.319,4.671 c 0,-1.04 -0.724,-1.465 -1.611,-1.424 -0.132,0.006 -0.248,0 -0.347,0.033 v 2.795 c 0.132,0.049 0.33,0.082 0.528,0.082 1.007,0 1.43,-0.512 1.43,-1.486 M 23.19,5.662 c 0.577,0.628 0.947,1.106 0.947,2.312 0,0.941 -0.297,1.865 -0.957,2.443 -0.726,0.676 -1.733,0.858 -3.021,0.858 -0.826,0 -1.651,-0.082 -2.262,-0.215 V 6.574 H 16.623 V 4.706 h 1.274 V 0.099 h 2.163 v 4.782 h 0.429 c 0.891,0 2.007,0.055 2.701,0.781 m 5.963,-5.563 h 2.162 v 11.126 h -2.162 v -4.66 h -2.262 v 4.66 H 24.729 V 0.099 h 2.162 v 4.452 h 2.262 z m 8.198,7.94 c 0,-1.04 -0.724,-1.465 -1.612,-1.424 -0.132,0.006 -0.247,0 -0.347,0.033 v 2.795 c 0.133,0.049 0.331,0.082 0.529,0.082 1.007,0 1.43,-0.512 1.43,-1.486 M 39.47,7.974 c 0,0.941 -0.297,1.865 -0.957,2.443 -0.727,0.676 -1.734,0.858 -3.021,0.858 -0.826,0 -1.651,-0.082 -2.262,-0.215 V 6.595 H 31.955 V 4.728 H 33.23 V 0.099 h 2.162 v 4.782 h 0.43 c 0.891,0 2.007,0.055 2.7,0.781 0.578,0.628 0.948,1.106 0.948,2.312" /></g></g></g></g></svg>
