<?xml version="1.0" encoding="UTF-8" standalone="no"?>
<svg
   xmlns:dc="http://purl.org/dc/elements/1.1/"
   xmlns:cc="http://creativecommons.org/ns#"
   xmlns:rdf="http://www.w3.org/1999/02/22-rdf-syntax-ns#"
   xmlns:svg="http://www.w3.org/2000/svg"
   xmlns="http://www.w3.org/2000/svg"
   xmlns:sodipodi="http://sodipodi.sourceforge.net/DTD/sodipodi-0.dtd"
   xmlns:inkscape="http://www.inkscape.org/namespaces/inkscape"
   viewBox="0 0 75.979485 23.718653"
   version="1.1"
   id="svg20"
   sodipodi:docname="trivago.svg"
   inkscape:version="1.0.1 (3bc2e813f5, 2020-09-07)">
  <metadata
     id="metadata26">
    <rdf:RDF>
      <cc:Work
         rdf:about="">
        <dc:format>image/svg+xml</dc:format>
        <dc:type
           rdf:resource="http://purl.org/dc/dcmitype/StillImage" />
        <dc:title>trivago</dc:title>
      </cc:Work>
    </rdf:RDF>
  </metadata>
  <defs
     id="defs24" />
  <sodipodi:namedview
     pagecolor="#ffffff"
     bordercolor="#666666"
     borderopacity="1"
     objecttolerance="10"
     gridtolerance="10"
     guidetolerance="10"
     inkscape:pageopacity="0"
     inkscape:pageshadow="2"
     inkscape:window-width="2880"
     inkscape:window-height="1556"
     id="namedview22"
     showgrid="false"
     fit-margin-top="0"
     fit-margin-left="0"
     fit-margin-right="0"
     fit-margin-bottom="0"
     inkscape:zoom="14.9125"
     inkscape:cx="40"
     inkscape:cy="11.9"
     inkscape:window-x="0"
     inkscape:window-y="0"
     inkscape:window-maximized="1"
     inkscape:current-layer="svg20" />
  <path
     fill="#f48f00"
     d="m 25.1,5.3 h 4 l 3.1,8.3 h 0.1 l 2.8,-8.3 h 3.8 l -4.8,12.2 h -4 z"
     id="path4" />
  <path
     fill="#007fad"
     d="M 10.4,8.3 H 6.7 v 4.1 c 0,0.7 0.1,1.6 0.7,2 0.6,0.4 1.5,0.3 2.2,0.2 0.4,0 0.6,-0.1 0.8,-0.3 v 3.1 C 9.9,17.5 9.5,17.6 9,17.7 6.4,18 2.6,17.5 2.6,14.1 V 8.3 H 0 v -3 H 2.6 V 1.7 h 4.1 v 3.6 h 3.7 z m 10.5,-3 h 3.7 V 17.5 H 20.9 Z M 20.7,2 c 0,-1.1 0.9,-2 2,-2 1.1,0 2,0.9 2,2 0,1.1 -0.9,2 -2,2 -1,0 -2,-0.9 -2,-2"
     id="path6" />
  <path
     fill="#c94a30"
     d="m 67.1,11.4 c 0,1.6 1,3.1 2.7,3.1 1.8,0 2.7,-1.4 2.7,-3.1 0,-1.6 -1,-3.1 -2.7,-3.1 -1.8,0 -2.7,1.4 -2.7,3.1 m -3.4,0 c 0,-2.6 1.4,-5.1 3.9,-6 2.5,-0.9 5.5,-0.2 7.1,1.9 1.5,2 1.7,5 0.5,7.3 -1.2,2.4 -4,3.5 -6.6,3 -3.1,-0.5 -4.9,-3.2 -4.9,-6.2"
     id="path8" />
  <path
     fill="#c94a30"
     d="M 59.7,5.2 V 6.9 H 59.6 C 59.5,6.8 59.4,6.7 59.2,6.4 56.8,4.3 52.6,4.7 51.1,7.7 c -0.8,1.5 -0.9,3.4 -0.7,5.1 0.2,1.5 0.8,3.2 2.1,4.1 1.5,1 3.5,1.2 5.2,0.5 0.8,-0.3 1.3,-0.9 1.5,-1.2 v 1.2 c 0,0.9 -0.2,1.6 -0.7,2.1 -1.1,1.1 -3.1,1 -4.5,0.7 -0.7,-0.2 -1.5,-0.5 -2.2,-1 l -1.7,2.7 c 1,0.7 1.9,1.1 2.9,1.4 2.7,0.7 6.4,0.7 8.4,-1.4 C 62.6,20.7 63,19 63,16.6 V 5.2 Z m -0.9,8.4 c -1,1.2 -3,1.2 -4,0 -1,-1.2 -1,-3.3 0,-4.5 1,-1.2 3,-1.2 4,0 1,1.2 1,3.3 0,4.5 -0.5,0.6 0.5,-0.6 0,0 z"
     id="path12" />
  <path
     fill="#007fad"
     d="m 11.4,5.3 h 3.8 v 2 C 15.6,6.5 16.1,6 16.6,5.6 17.8,4.8 19.7,5.1 19.9,5.2 v 3.4 c -0.8,-0.2 -2.4,-0.5 -3.5,0.2 -0.7,0.4 -1.3,1 -1.3,3.7 v 5.1 H 11.3 V 5.3 Z"
     id="path14" />
  <path
     fill="#f48f00"
     d="m 42.4,12.6 c -0.7,0.5 -1.3,1.4 -0.6,2.1 0.7,0.7 1.9,0.6 2.7,0.3 0.9,-0.3 1.6,-1 1.6,-2.1 v -0.8 c 0.1,0.1 -2.7,-0.1 -3.7,0.5 z m 3.8,3.4 c -0.5,0.6 -1,1.1 -1.7,1.4 -2.7,1.1 -6.5,0 -6.5,-3.3 0,-3.5 3.8,-4.2 6.5,-4.3 h 1.7 C 46.2,9.1 46,8.6 45.5,8.2 44.6,7.4 43.2,7.5 42.1,8 41.6,8.3 41.1,8.6 40.7,9.1 L 38.7,7 c 0.7,-0.6 1.5,-1.1 2.5,-1.5 1.6,-0.6 3.6,-0.7 5.2,-0.2 1.6,0.4 2.6,1.7 3,3.3 0.2,0.8 0.2,1.7 0.2,2.7 v 6.2 h -3.4 z"
     id="path16" />
</svg>
