<?xml version="1.0" encoding="utf-8"?>
<!-- Generator: Adobe Illustrator 27.3.1, SVG Export Plug-In . SVG Version: 6.00 Build 0)  -->
<svg version="1.1" id="Logo" xmlns="http://www.w3.org/2000/svg" xmlns:xlink="http://www.w3.org/1999/xlink" x="0px" y="0px"
	 viewBox="0 0 657.6 266.5" style="enable-background:new 0 0 657.6 266.5;" xml:space="preserve">
<style type="text/css">
	.st0{fill:#1E2F48;}
</style>
<path id="Blue_1_" class="st0" d="M650,134.4c-2.1,0-3.4,1.8-5.2,4.4c-4.9,6.8-15.1,19.2-30.4,19.2c-12.5,0-19.2-5.5-20.8-14.3
	c9.9-6.8,32.8-28.6,32.8-50.2c0-10.1-4.4-15.9-16.4-15.9c-16.6,0-36.4,25-36.4,54.1c0,6.1,1.1,11.5,3,16.3c-4.5,5.2-9.9,10-15.2,10
	c-8.8,0-15.3-3.9-15.3-32c0-22.1,1.3-38.5,3.1-51h11.2c12.7,0,23.1-2.6,23.1-6s-4.4-8.6-7.3-8.6c-2.9,0-2.3,2.6-15.9,2.6h-9.1
	l2.3-8.3c2.1-7,5.5-12,5.5-14c0-6-8.6-11.4-13.5-11.4c-2.9,0-4.4,2.6-6,9.9c-1.6,6.2-2.9,14.6-4.2,23.7c-3.6-0.3-7-0.3-9.1-0.3
	c-3.4,0-6.5,6.5-6.5,8.8s0.8,3.9,4.7,3.9h9.4c-2.3,18.7-3.9,39.3-3.9,52.3c0,3.4,0.1,6.6,0.4,9.6c-0.4,0.5-0.8,1-1.2,1.6
	c-4.9,6.8-11.2,17.2-20.3,17.2c-8.8,0-10.1-16.1-10.1-34.1c0-22.4,9.9-27.3,9.9-33.3c0-4.2-2.1-7.5-6.5-7.5
	c-6.8,0-12.5,10.1-12.7,10.7c-0.3-1-3.1-14.6-19.5-14.6c-15.8,0-41,25.1-41.8,64c-4.8,6.3-11.5,13.2-19.5,13.2
	c-7.5,0-10.4-5.5-10.4-11.2c0-14.3,5.2-29.1,5.2-40c0-10.9-8.3-12.2-16.4-12.2c-4.4,0-8.3,0-11.7-0.5c3.1-8.3,5.5-15.3,5.5-19.5
	c0-8.3-6.5-13.5-15.9-13.5c-11.2,0-21.8,10.4-21.8,23.4c0,10.1,6.2,16.6,15.6,20L344,137c-4.7,12-15.1,16.6-15.1,22.1
	c0,4.4,0.8,7.8,7.8,7.8c8.3,0,14.8-13.3,20.3-30.2c3.4-10.7,8.3-22.4,12.7-33c3.4,0.3,6.5,0.5,10.1,0.5c4.9,0,6.5,0.8,6.5,4.7
	c0,3.9-4.9,18.2-4.9,35.6c0,13.8,10.9,23.4,24.7,23.4c9.8,0,17.8-6,23.9-12.8c2.7,7.5,8.3,13.6,16.9,13.6
	c17.7,0,36.7-30.7,36.7-30.7s0.8,30.7,23.1,30.7c11.4,0,19.9-9.2,26.1-17.6c4.4,13.9,13.4,18.6,24.3,18.6c10.5,0,18.7-5.9,25-12.5
	c6.8,7.9,17.3,12.2,29.6,12.2c21.8,0,34.3-14.8,40.8-23.9c1.8-2.6,2.6-3.9,2.6-6C655.2,137.3,652.3,134.4,650,134.4z M363.5,87.9
	c-4.4-1.8-6.5-4.2-6.5-7.3c0-6.5,2.1-9.9,5.2-9.9s3.9,2.1,3.9,6C366.1,79,365,82.9,363.5,87.9z M451.9,156c-6.5,0-8.1-6.5-8.1-14.8
	c0-31.5,18.7-52.3,27.8-52.3c6.8,0,8.6,5.7,8.6,14.8c0,3.9-3.1,6.2-3.1,10.1c0,3.9,3.6,4.7,3.6,7.8S459.7,156,451.9,156z
	 M608.6,89.7c2.3,0,3.6,1.3,3.6,4.4c0,15.9-13.5,30.7-21.3,35.6C591,111,602.7,89.7,608.6,89.7z M309.3,82.2
	c-3.7-0.1-7.2,0.6-10.4,2.1c8.2-17.9,17.3-41.7,18.4-61.5c0.8-14.9-3.9-22.4-14.2-22.7C290.3-0.5,270,23.6,269,96.9
	c0,1-0.1,4.5-0.2,8.7c-0.2,1.6-0.4,3.1-0.5,4.4c-1.5,12.5-1.5,22.6-0.5,30.5c-5.3,7-15,17.5-29.1,17.5c-12.5,0-19.2-5.5-20.8-14.3
	c9.9-6.8,32.8-28.6,32.8-50.2c0-10.1-4.4-15.9-16.4-15.9c-16.6,0-36.4,25-36.4,54.1c0,6,1,11.4,2.9,16.1c-4.2,4.4-9.3,8.1-15.7,8.1
	c-15.1,0-22.9-16.6-22.9-27c0,0,27.6-56.2,27.6-95.9c0-16.1-5.2-23.9-15.6-23.9c-13,0-29.4,27.8-29.4,105.8c0,7.4,0.8,13.9,2.2,19.7
	c-1.5,0.6-2.6,2.1-4,4.2c-4.9,6.8-15.1,19.2-30.4,19.2c-12.5,0-19.2-5.5-20.8-14.3c9.9-6.8,32.8-28.6,32.8-50.2
	c0-10.1-4.4-15.9-16.4-15.9c-16.6,0-36.4,25-36.4,54.1c0,2.1,0.1,4.2,0.4,6.1c-0.2,0.3-0.4,0.6-0.6,0.9
	c-4.9,6.8-14.3,20.3-30.7,20.3c-15.3,0-25.2-8.8-25.2-27.6c0-26.3,12.5-41.9,20.3-41.9c4.9,0,7,4.4,7,7.5s-2.6,4.7-2.6,8.3
	c0,3.6,3.9,7,8.3,7c5.5,0,9.1-4.4,9.1-11.7c0-10.1-5.2-23.1-21.6-23.1C15.9,77.7,0,99,0,131.5c0,25.2,19.8,39.3,38,39.3
	c19,0,30.7-11.4,37.8-20.5c6.1,12.4,18.7,19.2,34.2,19.2c21.8,0,34.3-14.8,40.8-23.9c0,0,0,0,0,0c7.4,15.8,20.6,23.2,33.8,23.2
	c9.2,0,16.3-5.2,22-11.3c6.8,7.8,17.3,12.1,29.5,12.1c16.3,0,27.4-8.3,34.7-16.3c4.3,11.5,11.9,15.7,18.9,16.4
	c18.3,2.1,38.7-15.6,43-43.2C336.5,99.7,327.2,82.9,309.3,82.2z M106.9,89.7c2.3,0,3.6,1.3,3.6,4.4c0,15.9-13.5,30.7-21.3,35.6
	C89.2,111,100.9,89.7,106.9,89.7z M157.6,110.1c0-51,10.6-85.2,16.1-85.2c2.1,0,3.1,2.9,3.1,6.5C176.8,66.5,157.6,110.1,157.6,110.1
	z M233,89.7c2.3,0,3.6,1.3,3.6,4.4c0,15.9-13.5,30.7-21.3,35.6C215.3,111,227,89.7,233,89.7z M283.4,63.6
	c3.1-28.8,13.8-51,18.4-51.2c2.2-0.1,3.4,2.2,3.4,5.2c0.3,16.7-7.5,38.1-13.1,53.2c-4.8,13.1-10.4,19.3-10.4,19.3
	C281.8,75.5,282.5,71.5,283.4,63.6z M318.1,125.9c-3,18.7-15.3,32.9-26.1,31.6c-6.6-0.7-11-8.4-11.3-26.3
	c5.9-20,15.9-37.1,26.8-36.7C316.9,94.8,321.2,106.7,318.1,125.9z M173.9,264.3c-2.1-1.3-3.8-3.1-4.9-5.4c-1.1-2.3-1.7-5.1-1.7-8.3
	c0-3.2,0.6-5.9,1.7-8.3c1.1-2.3,2.8-4.1,4.9-5.4c2.1-1.3,4.7-1.9,7.5-1.9c2,0,3.9,0.3,5.7,1c1.7,0.6,3.2,1.6,4.4,2.8l-1.5,3.3
	c-1.4-1.2-2.8-2-4.1-2.5c-1.4-0.5-2.8-0.8-4.4-0.8c-3.1,0-5.5,1-7.2,3.1c-1.7,2.1-2.5,5-2.5,8.8c0,3.8,0.8,6.8,2.5,8.8
	c1.7,2.1,4.1,3.1,7.2,3.1c1.6,0,3.1-0.3,4.4-0.8c1.4-0.5,2.7-1.4,4.1-2.5l1.5,3.3c-1.2,1.2-2.7,2.2-4.4,2.8c-1.8,0.6-3.6,1-5.7,1
	C178.6,266.2,176.1,265.5,173.9,264.3z M217.6,264.3c-2.1-1.3-3.7-3.1-4.8-5.4c-1.1-2.3-1.7-5.1-1.7-8.3c0-3.2,0.6-6,1.7-8.3
	c1.1-2.3,2.7-4.1,4.8-5.4c2.1-1.3,4.6-1.9,7.4-1.9c2.9,0,5.3,0.6,7.4,1.9s3.7,3.1,4.8,5.4s1.7,5.1,1.7,8.3c0,3.2-0.6,6-1.7,8.3
	c-1.1,2.3-2.7,4.1-4.8,5.4c-2.1,1.3-4.6,1.9-7.4,1.9S219.7,265.5,217.6,264.3z M231.9,259.4c1.7-2.1,2.5-5.1,2.5-8.9
	c0-3.8-0.8-6.8-2.5-8.8c-1.7-2.1-4-3.1-7-3.1s-5.3,1-7,3.1c-1.7,2.1-2.5,5-2.5,8.8c0,3.9,0.8,6.8,2.5,8.9s4,3.1,7,3.1
	C227.9,262.6,230.3,261.5,231.9,259.4z M285.5,235.3h3.5v30.5h-3.9v-20.9l-8.9,20.9h-3l-9-20.8l0,20.8h-3.9v-30.5h3.5l10.9,25.2
	L285.5,235.3z M311.5,235.3H324c3.1,0,5.6,0.8,7.3,2.3c1.7,1.6,2.6,3.7,2.6,6.4s-0.9,4.8-2.7,6.4c-1.8,1.6-4.2,2.3-7.3,2.3h-8.1
	v13.1h-4.3V235.3z M323.5,249.2c2.1,0,3.6-0.4,4.7-1.3c1.1-0.9,1.6-2.2,1.6-3.9c0-1.7-0.5-2.9-1.6-3.8c-1-0.9-2.6-1.3-4.7-1.3h-7.6
	v10.3H323.5z M374.4,265.8l-3.2-7.5h-15.1l-3.2,7.5h-4.4l13.3-30.5h3.7l13.4,30.5H374.4z M357.5,254.8h12.2l-6.1-14.5L357.5,254.8z
	 M418.6,235.3h4.1v30.5h-3.3l-17.1-23v23h-4.1v-30.5h3.3l17.2,23.1V235.3z M468.8,235.3l-11.9,18.2v12.2h-4.4v-12.3l-11.9-18.2h5
	l9.2,14.4l9.1-14.4H468.8z"/>
</svg>
