<svg xmlns="http://www.w3.org/2000/svg" id="Layer_1" viewBox="0 0 2365 580"><style>.st0{fill:#005EA8;}</style><path d="M146.4 376.7c-38.9 0-79.1-.9-105.5-12.2-13.7-5.8-23.2-13.6-29.9-24.5-7.4-12-11-27.6-11-47.5 0-15.2 2.2-33 6.4-53.1 1-4.6 23.9-111.6 25.4-117.3C37.9 99.8 45.5 81.4 55.2 66c16.7-26.5 39-43.6 70.1-53.8C151.2 3.8 184.2 0 232.1 0h.4c25.2 0 45.9 1.8 63.3 5.4 20.5 4.3 36.2 11.4 46.6 20.9 7.8 7.2 12.8 15.9 14.9 26 1.1 5.1 1.6 10.8 1.6 16.9 0 14.2-2.9 29.1-5.2 41-.3 1.8-.7 3.4-1 5.1l-.1.5h-92.8l.1-.7s.3-2.8.4-4.1c0-.1.4-3.8.4-9.2 0-8.1-3.8-14.4-11.5-19.3-6.1-3.5-14-4.7-21.5-5.6-8-1-17-1.1-25.5-1.1-15.6 0-27.4 1.2-37.1 3.9-7.7 2.1-14.2 5.2-19.6 9.3-7.7 5.8-13.7 14.2-18.3 25.6-4.3 10.6-7.4 23.3-10.8 39l-12.5 60c-4.1 19.3-7 33.9-7 46.5 0 7.3 1 13 3.1 18.1 3.3 8.1 10.3 14.4 19.8 17.8 9.1 3.3 20.7 4.8 37.5 4.8 11.2 0 20.4-.2 28.8-1.2 14.5-1.7 24.9-6.1 32.7-13.7 8.5-8.2 14.2-20.4 18-38.3l1.3-6.1h91.8v.6c0 .7-5.2 24.8-7.9 34.5-2.8 10.1-5.8 18.6-9.3 26.2-8.9 19.4-21.3 34.4-39.1 47.1-17.2 12-35.5 19.4-57.6 23.3-19 3.3-38.5 3.6-60.1 3.6 0 0-8.4-.1-9.5-.1zm1028.3 0c-38.9 0-79.1-.9-105.5-12.2-13.7-5.8-23.2-13.6-29.9-24.5-7.4-12-11-27.6-11-47.5 0-15.2 2.2-33 6.4-53.1 1-4.6 23.9-111.6 25.4-117.3 6-22.3 13.7-40.7 23.4-56.1 16.7-26.5 39-43.6 70.1-53.8C1179.5 3.8 1212.5 0 1260.4 0h.4c25.2 0 45.9 1.8 63.3 5.4 20.5 4.3 36.2 11.4 46.6 20.9 7.8 7.2 12.8 15.9 14.9 26 1.1 5.1 1.6 10.8 1.6 16.9 0 14.2-2.9 29.1-5.2 41.1-.3 1.7-.7 3.4-1 5.1l-.1.5h-92.8l.1-.7s.3-2.8.4-4.1c0-.1.4-3.8.4-9.2 0-8.1-3.8-14.4-11.5-19.3-6.1-3.5-14-4.7-21.5-5.6-8-1-17-1.1-25.5-1.1-15.6 0-27.4 1.2-37.1 3.9-7.7 2.1-14.1 5.2-19.6 9.3-7.7 5.8-13.7 14.2-18.3 25.6-4.3 10.6-7.4 23.3-10.8 39l-12.7 59.8c-4.1 19.3-7 33.9-7 46.5 0 7.3 1 13 3.1 18.1 3.3 8.1 10.3 14.4 19.8 17.8 9.1 3.3 20.7 4.8 37.5 4.8 11.2 0 20.4-.2 28.8-1.2 14.5-1.7 24.9-6.1 32.7-13.7 8.5-8.2 14.2-20.4 18-38.3l1.3-6.1h91.8v.6c0 .7-5.2 24.8-7.9 34.5-2.8 10.1-5.8 18.6-9.3 26.2-8.9 19.5-21.3 34.4-39.1 47.1-17.2 12-35.5 19.4-57.6 23.3-19 3.3-38.5 3.6-60.1 3.6h-9.3zm-199.2-3h-267l.2-.7 74.7-351.4c1.3-6.5 3.7-10.9 7.6-13.9 4-3.1 9.5-4.6 16.8-4.6h225.3c5.6 0 9.6 1.3 12 3.7 1.8 1.9 2.8 4.6 2.8 7.9v.3c0 1.4-.2 2.7-.5 4.1l-11.6 54.8H861.4l-15.1 72.7H1010l-14.9 68.5H831.4l-18.6 87.7h178l-15.3 70.9zm478.8 0h-89l.2-.7 74.4-350.1c1.8-7.6 4.6-12.8 8.8-16 3.3-2.5 7.5-3.7 12.9-3.7h52.7c5.7 0 9.9 1.3 12.6 3.9 2.1 2 3.2 5 3.2 8.5 0 1.1-.1 2.2-.3 3.3l-75.5 354.8zm245.1 0h-112.2l-.2-.4-83.1-192.2.3-.3 143.7-156c8.9-9.7 14.1-14.6 18.8-17.5 5-3.1 9.4-4.2 16.6-4.2h72.4c3.4 0 5.5 1.1 6.7 2.1.7.6 1.2 1.2 1.5 1.8.2.4.4.9.4 1.5h.1l-.1 1.2c-.1 1.5-.9 4-3.9 7.3l-155.1 166.7 94.1 190zm-1125.6 0h-.7l.2-.7 31.6-149.7H458.2l-32 150.4h-89l.2-.7c3-14.2 73.7-348 74.2-349.9 2.6-11 7-14.8 10.5-16.8 3.8-2.2 9.1-3.2 16.6-3.2h48.1c2.5 0 6.6 1.1 9.7 3.3 1.7 1.2 3 2.6 3.8 4.1 1 1.8 1.5 3.8 1.5 6.1 0 1-.1 2.1-.3 3.2-.4 2.1-24.8 116.2-27.2 127.5h146.8C633 91 647.3 23.9 647.5 23.1c2.6-11 7-14.8 10.5-16.8 3.8-2.2 9.1-3.2 16.6-3.2h48.1c2.5 0 6.6 1.1 9.7 3.3 1.7 1.2 3 2.6 3.8 4.1 1 1.8 1.5 3.8 1.5 6.1 0 1-.1 2.1-.3 3.2-.4 2.2-72.1 339-75.2 353.4l-.1.5h-88.3zM1961.9 75.5c6.9 1.8 12.3 5.2 15.2 10.9 1.9 3.8 2.8 8.2 2.8 13.5 0 5.4-.9 11.7-2.4 19.1-2.1 9.7-4.1 17.7-7.2 24.6-3.1 6.9-7.3 12.6-13.4 17.4-12.2 9.6-31.2 15.4-64.9 23-44.6 9.9-75.3 18.1-97 28.9-21.7 10.8-34.3 23.7-43.8 44.1-6.3 13.6-11.1 30.6-15.7 52.1l-12.6 64h288.7l13.5-64.8h-200.9s3.1-15.6 5.7-21.3c3.3-7.4 7.6-12.9 13.2-17s12.4-6.8 20.6-9.1c16.5-4.6 39.3-7.7 72.8-16.2 41.3-10.7 69.2-22.4 88.9-41.3 19.7-18.9 31.7-45.5 40.5-87.2 3.3-15.4 5.1-30.6 5.1-42.1 0-16.5-3.2-29.2-8.9-38.9s-13.9-16.7-24.7-21.9C2016 3 1984.5.6 1947.2.6c-47.5 0-84.9 4.9-112.7 22-27.8 17-47.1 48-57.9 98.5l-3 14.3h87.8l3.4-15.8c3.4-15.1 6.6-25.4 12.3-32.7 5.7-7.4 14-10.9 25.2-12.3 7.6-1 16.7-1.2 28-1.2h5.2c10.9-.2 19.5.3 26.4 2.1zm242.2-35.7c-10.2 10.6-95.9 100.2-131 137-7 7.5-14.5 15.8-17.8 22.7-2.7 5-6.2 18.9-8 28.8-3.7 20.7-6.5 39.6-8.2 47.3-.4 2-.6 3.8-.6 5.5 0 6.4 2.7 10.6 6.3 13.7 3.5 3 8.3 4.4 13 4.4h170.1l-15.7 73.9 89.5-8.5 13.9-65.5h32l13.9-65.5h-32s32-149.4 33-155c11-60.5-14.1-78.2-70.7-78.2-14.4.3-47.1-2.7-87.7 39.4zm37.6 194h-128.5l152.9-158.4h9.3l-33.7 158.4zm-238 346.2c-57.8 0-113.3-15.4-160.5-44.6-46.4-28.6-73.4-62.4-86.2-81.5l-16.9 43.5c-1.5 4-5.7 6.5-10.2 5.8-4.4-.8-7.7-4.6-7.7-9l-.9-85.3v-.1c0-2.4 1-4.7 2.7-6.3 1.8-1.7 4.1-2.7 6.6-2.7h86.9c4.3.1 8 3.3 8.8 7.5.1.6.2 1.1.2 1.7 0 3.8-2.4 7.2-5.9 8.6l-42.3 16.4c37.1 33.1 113.6 86.3 221 86.3 9.2 0 18.5-.4 27.7-1.2 45.3-3.8 91-15 132.2-32.2 36.1-15.1 67.9-34.3 92.2-55.7l-43.7-12.9c-3.9-1.1-6.7-4.7-6.7-8.8v-.9c.4-4.4 4-7.9 8.4-8.3l84.7-7.7c.4 0 .7-.1.9-.1 2.2 0 4.3.8 5.9 2.1 1.9 1.6 3.1 3.9 3.3 6.3 7 83.3 7 83.3 7 83.6 0 4.1-2.8 7.8-6.8 8.9-.8.2-1.6.3-2.4.3-3.6 0-6.8-2-8.4-5.1l-20.5-39.2c-16.4 22.2-45 53.5-89.8 80.7-45.4 27.6-96.1 44-150.7 48.6l-5.5.5c-7.7.5-15.6.8-23.4.8z" class="st0"/></svg>