<?xml version="1.0" encoding="UTF-8"?><svg id="Ebene_1" xmlns="http://www.w3.org/2000/svg" viewBox="0 0 1200 504"><defs><style>.cls-1{fill:#27367b;}</style></defs><g><path class="cls-1" d="m318.06,174.9c-12.7,0-28.22,6.49-36.41,20.04-5.93-12.7-16.93-20.04-34.71-20.04-12.7,0-25.12,6.49-31.89,15.52l-3.67-18.91-30.76,6.21,3.67,18.91v92.85h30.2v-58.14c0-14.96,7.62-27.94,22.86-27.94,16.09,0,19.47,11.01,19.47,25.68v60.11h30.2v-59.27c0-14.96,8.18-26.81,22.86-26.81,15.8,0,19.47,11.01,19.47,25.68v62.37l30.2-5.93v-59.83c0-28.79-9.88-50.52-41.49-50.52Z"/><path class="cls-1" d="m389.46,129.74c-10.44,0-18.91,8.75-18.91,19.19s8.75,18.91,18.91,18.91c10.72,0,19.19-8.75,19.19-18.91s-8.47-19.19-19.19-19.19Z"/><rect class="cls-1" x="374.79" y="177.16" width="30.2" height="112.32"/><path class="cls-1" d="m539.89,265.77c-5.36,0-10.16-3.1-10.16-12.7v-51.65h31.04l-7.62-24.27h-23.14v-36.12l-30.2,5.93v30.48h-39.23v-36.41l-30.2,5.93v30.48h-16.37v24.27h16.37v51.93c0,25.4,12.14,38.38,34.71,38.38,11.85,0,21.73-3.95,28.5-8.47l-8.47-22.3c-.85.56-7.06,4.8-14.39,4.8-5.36,0-10.16-3.1-10.16-12.7v-51.93h39.23v51.93c0,25.4,12.14,38.38,34.71,38.38,11.85,0,21.73-3.95,28.5-8.47l-8.47-22.3c-1.13.56-7.34,4.8-14.68,4.8Z"/><path class="cls-1" d="m695.96,177.16l-17.22,60.11c-2.26,7.9-3.39,16.65-3.39,16.65,0,0-1.13-8.75-2.82-16.37l-13.83-60.11h-29.63l-13.55,59.83c-1.69,7.62-2.82,16.37-2.82,16.37,0,0-1.41-8.75-3.67-16.65l-16.93-59.83h-29.35l35.84,112.61h27.38l14.96-60.68c1.69-7.62,3.1-15.8,3.1-15.8,0,0,1.13,8.18,2.82,15.8l14.96,60.68h27.09l36.41-112.61h-29.35Z"/><path class="cls-1" d="m806.59,190.98c-8.18-10.72-22.01-15.8-35-15.8-31.04,0-50.8,25.96-50.8,58.42s19.76,58.42,50.8,58.42c12.98,0,27.09-5.08,35-15.8v15.52l29.35-5.64v-108.94h-29.35v13.83Zm-27.38,72.81c-16.09,0-27.94-12.7-27.94-30.48s11.57-30.48,27.94-30.48c15.52,0,26.81,12.98,26.81,30.48-.28,18.06-11.29,30.48-26.81,30.48Z"/><polygon class="cls-1" points="850.9 289.48 881.09 289.48 881.09 140.75 850.9 146.68 850.9 289.48"/><path class="cls-1" d="m977.61,189.57c-8.18-9.6-20.88-14.96-33.87-14.96-31.04,0-51.08,25.96-51.08,58.42s19.76,58.42,50.8,58.42c13.55,0,27.94-5.08,35.84-15.8v15.8l28.5-5.93v-141.11h-30.2v45.16Zm-26.81,74.22c-16.09,0-27.94-12.7-27.94-30.48s11.57-30.48,27.94-30.48c15.52,0,26.81,12.98,26.81,30.48s-11.29,30.48-26.81,30.48Z"/><rect class="cls-1" x="1022.49" y="259.28" width="30.2" height="30.2"/></g><g><path class="cls-1" d="m214.48,363.99v-18.63h-20.88v18.63h-9.6v-44.31h9.6v17.5h20.88v-17.5h9.6v44.31h-9.6Z"/><path class="cls-1" d="m230.29,347.9c0-9.03,6.49-16.93,16.93-16.93s16.93,7.62,16.93,16.93-6.49,16.93-16.93,16.93-16.93-7.9-16.93-16.93Zm25.4,0c0-5.08-3.1-9.31-8.18-9.31-5.36,0-8.18,4.23-8.18,9.31s2.82,9.31,8.18,9.31c5.08,0,8.18-4.23,8.18-9.31Z"/><path class="cls-1" d="m270.93,353.83c2.26,2.26,7.06,4.52,11.01,4.52,3.67,0,5.36-1.13,5.36-3.39s-2.82-3.1-6.49-3.67c-5.64-1.13-12.7-2.26-12.7-10.16,0-5.36,4.8-10.16,13.26-10.16,5.36,0,9.88,1.98,12.98,4.52l-3.39,5.93c-1.98-1.98-5.64-3.67-9.6-3.67-3.1,0-5.08,1.13-5.08,3.1s2.54,2.82,6.21,3.39c5.64,1.13,12.98,2.54,12.98,10.44,0,5.93-5.08,10.44-13.83,10.44-5.64,0-11.01-1.98-14.39-5.08l3.67-6.21Z"/><path class="cls-1" d="m303.67,356.08v-16.65h-5.36v-7.34h5.36v-8.75h8.47v8.75h6.49v7.34h-6.49v14.39c0,1.98,1.13,3.67,2.82,3.67,1.13,0,2.54-.56,2.82-.85l1.69,6.49c-1.13,1.13-3.67,1.98-7.06,1.98-5.64-.28-8.75-3.39-8.75-9.03Z"/><path class="cls-1" d="m323.42,321.94c0-2.82,2.26-5.08,5.08-5.08s5.08,2.26,5.08,5.08-2.26,5.08-5.08,5.08c-2.54,0-5.08-2.26-5.08-5.08Zm.85,42.05v-32.17h8.47v32.17h-8.47Z"/><path class="cls-1" d="m362.37,363.99v-19.47c0-4.52-2.26-5.93-5.93-5.93-3.39,0-5.93,1.98-7.34,3.67v21.73h-8.47v-32.17h8.47v4.23c1.98-2.54,5.93-5.08,11.29-5.08,7.06,0,10.44,3.95,10.44,10.16v22.58h-8.47v.28Z"/><path class="cls-1" d="m381.84,366.24c2.54,2.82,5.93,3.95,10.16,3.95s8.75-1.69,8.75-8.18v-3.39c-2.54,3.1-5.93,5.08-9.88,5.08-8.18,0-14.11-5.64-14.11-16.37s5.93-16.37,14.11-16.37c3.95,0,7.34,1.69,9.88,4.8v-4.23h8.47v29.92c0,12.14-9.6,15.24-17.5,15.24-5.64,0-9.88-1.13-13.83-4.8l3.95-5.64Zm18.91-23.99c-1.41-2.26-4.52-3.67-7.34-3.67-4.8,0-8.18,3.39-8.18,8.75,0,5.64,3.39,8.75,8.18,8.75,2.82,0,5.93-1.69,7.34-3.67v-10.16Z"/><path class="cls-1" d="m456.35,363.99v-19.47c0-4.52-2.26-5.93-5.93-5.93-3.39,0-5.93,1.98-7.34,3.67v21.73h-8.47v-32.17h8.47v4.23c1.98-2.54,5.93-5.08,11.29-5.08,7.06,0,10.44,3.95,10.44,10.16v22.58h-8.47v.28Z"/><path class="cls-1" d="m487.39,330.97c9.6,0,16.09,7.06,16.09,17.78v1.98h-23.99c.56,3.95,3.67,7.34,9.31,7.34,3.1,0,6.49-1.13,8.47-3.1l3.67,5.36c-3.39,3.1-8.18,4.52-13.26,4.52-9.88,0-17.22-6.49-17.22-16.93.28-9.31,7.06-16.93,16.93-16.93Zm-7.9,13.83h15.8c-.28-3.1-2.26-7.06-7.9-7.06s-7.62,3.95-7.9,7.06Z"/><path class="cls-1" d="m530.86,363.99v-3.95c-2.26,2.54-5.93,4.8-11.29,4.8-7.06,0-10.44-3.95-10.44-10.16v-22.86h8.47v19.47c0,4.52,2.26,5.93,5.93,5.93,3.39,0,5.93-1.69,7.34-3.67v-21.73h8.47v32.17h-8.47Z"/><path class="cls-1" d="m567.83,366.24c2.54,2.82,5.93,3.95,10.16,3.95,3.95,0,8.75-1.69,8.75-8.18v-3.39c-2.54,3.1-5.93,5.08-9.88,5.08-8.18,0-14.11-5.64-14.11-16.37s5.93-16.37,14.11-16.37c3.95,0,7.34,1.69,9.88,4.8v-4.23h8.47v29.92c0,12.14-9.6,15.24-17.5,15.24-5.64,0-9.88-1.13-13.83-4.8l3.95-5.64Zm18.91-23.99c-1.41-2.26-4.52-3.67-7.34-3.67-4.8,0-8.18,3.39-8.18,8.75,0,5.64,3.39,8.75,8.18,8.75,2.82,0,5.93-1.69,7.34-3.67v-10.16Z"/><path class="cls-1" d="m617.78,330.97c9.6,0,16.09,7.06,16.09,17.78v1.98h-23.99c.56,3.95,3.67,7.34,9.31,7.34,3.1,0,6.49-1.13,8.47-3.1l3.67,5.36c-3.39,3.1-8.18,4.52-13.26,4.52-9.88,0-17.22-6.49-17.22-16.93.28-9.31,7.06-16.93,16.93-16.93Zm-7.9,13.83h15.8c-.28-3.1-2.26-7.06-7.9-7.06s-7.62,3.95-7.9,7.06Z"/><path class="cls-1" d="m661.81,363.99v-3.95c-2.54,3.1-5.93,4.8-9.88,4.8-8.18,0-14.11-6.21-14.11-16.93s5.93-16.93,14.11-16.93c3.67,0,7.34,1.69,9.88,4.8v-16.37h8.47v44.31h-8.47v.28Zm0-21.73c-1.41-2.26-4.52-3.67-7.34-3.67-4.8,0-8.18,3.67-8.18,9.31s3.39,9.31,8.18,9.31c2.82,0,5.93-1.41,7.34-3.67v-11.29Z"/><path class="cls-1" d="m697.65,363.99v-3.39c-2.26,2.54-5.93,4.23-10.16,4.23-5.08,0-11.29-3.39-11.29-10.72s5.93-10.16,11.29-10.16c4.23,0,8.18,1.41,10.16,3.95v-4.52c0-3.39-2.82-5.36-7.06-5.36-3.39,0-6.77,1.13-9.31,3.67l-3.1-5.64c3.95-3.39,9.03-5.08,14.11-5.08,7.34,0,14.11,2.82,14.11,12.14v20.88h-8.75Zm0-11.85c-1.41-1.98-3.95-2.82-6.77-2.82-3.39,0-5.93,1.69-5.93,4.8s2.82,4.8,5.93,4.8c2.82,0,5.36-.85,6.77-2.82v-3.95Z"/><path class="cls-1" d="m728.98,330.97c6.49,0,10.72,2.82,12.7,5.93l-5.64,5.08c-1.41-2.26-3.95-3.39-6.77-3.39-5.08,0-8.75,3.67-8.75,9.31s3.67,9.31,8.75,9.31c2.82,0,5.36-1.41,6.77-3.39l5.64,5.08c-2.26,3.1-6.21,5.93-12.7,5.93-9.88,0-16.93-7.06-16.93-16.93-.28-9.88,7.06-16.93,16.93-16.93Z"/><path class="cls-1" d="m768.2,363.99v-19.47c0-4.52-2.26-5.93-5.93-5.93-3.39,0-5.93,1.98-7.34,3.67v21.73h-8.47v-44.31h8.47v16.37c1.98-2.54,5.93-5.08,11.29-5.08,7.06,0,10.44,3.95,10.44,10.16v22.86h-8.47Z"/><path class="cls-1" d="m785.98,356.08v-16.65h-5.36v-7.34h5.36v-8.75h8.47v8.75h6.49v7.34h-6.49v14.39c0,1.98,1.13,3.67,2.82,3.67,1.13,0,2.54-.56,2.82-.85l1.69,6.49c-1.13,1.13-3.67,1.98-7.06,1.98-5.36-.28-8.75-3.39-8.75-9.03Z"/></g></svg>